<svg width="54" height="43" viewBox="0 0 54 43" fill="none" xmlns="http://www.w3.org/2000/svg">
<path d="M51.6875 0.3125V3.375C47.3542 4.95833 43.9583 7.45833 41.5 10.875C39.0417 14.25 37.8125 17.7708 37.8125 21.4375C37.8125 22.2292 37.9375 22.8125 38.1875 23.1875C38.3542 23.4375 38.5417 23.5625 38.75 23.5625C38.9583 23.5625 39.2708 23.4167 39.6875 23.125C41.0208 22.1667 42.7083 21.6875 44.75 21.6875C47.125 21.6875 49.2292 22.6667 51.0625 24.625C52.8958 26.5417 53.8125 28.8333 53.8125 31.5C53.8125 34.2917 52.75 36.75 50.625 38.875C48.5417 41 46 42.0625 43 42.0625C39.5 42.0625 36.4792 40.625 33.9375 37.75C31.3958 34.875 30.125 31.0208 30.125 26.1875C30.125 20.5625 31.8542 15.5208 35.3125 11.0625C38.7708 6.60417 44.2292 3.02083 51.6875 0.3125ZM21.625 0.3125V3.375C17.2917 4.95833 13.8958 7.45833 11.4375 10.875C8.97917 14.25 7.75 17.7708 7.75 21.4375C7.75 22.2292 7.875 22.8125 8.125 23.1875C8.29167 23.4375 8.47917 23.5625 8.6875 23.5625C8.89583 23.5625 9.20833 23.4167 9.625 23.125C10.9583 22.1667 12.6458 21.6875 14.6875 21.6875C17.0625 21.6875 19.1667 22.6667 21 24.625C22.8333 26.5417 23.75 28.8333 23.75 31.5C23.75 34.2917 22.6875 36.75 20.5625 38.875C18.4792 41 15.9375 42.0625 12.9375 42.0625C9.4375 42.0625 6.41667 40.625 3.875 37.75C1.33333 34.875 0.0625 31.0208 0.0625 26.1875C0.0625 20.5625 1.79167 15.5208 5.25 11.0625C8.70833 6.60417 14.1667 3.02083 21.625 0.3125Z" fill="#21201F"/>
</svg>
