<svg width="18" height="18" viewBox="0 0 18 18" fill="none" xmlns="http://www.w3.org/2000/svg">
<g clip-path="url(#clip0_145_2373)">
<path fill-rule="evenodd" clip-rule="evenodd" d="M10.0273 1.18577C9.96728 1.05567 9.87124 0.945495 9.75055 0.868268C9.62987 0.791041 9.48959 0.75 9.34631 0.75C9.20303 0.75 9.06275 0.791041 8.94206 0.868268C8.82137 0.945495 8.72534 1.05567 8.66531 1.18577L6.51281 5.85077L1.41206 6.45602C1.26974 6.47283 1.13522 6.53005 1.02442 6.62092C0.913611 6.71179 0.831157 6.8325 0.786813 6.96876C0.742468 7.10503 0.738091 7.25115 0.774199 7.38983C0.810307 7.5285 0.885387 7.65393 0.990556 7.75127L4.76306 11.2388L3.76181 16.2788C3.734 16.4193 3.74699 16.5648 3.79927 16.6981C3.85154 16.8315 3.94089 16.9471 4.05677 17.0312C4.17265 17.1154 4.3102 17.1646 4.45317 17.1731C4.59614 17.1816 4.73855 17.1489 4.86356 17.079L9.34631 14.5695L13.8291 17.079C13.9541 17.1492 14.0967 17.1821 14.2399 17.1737C14.3831 17.1653 14.5209 17.116 14.6369 17.0317C14.753 16.9474 14.8424 16.8316 14.8946 16.698C14.9468 16.5644 14.9597 16.4187 14.9316 16.278L13.9303 11.2395L17.7021 7.75127C17.8072 7.65393 17.8823 7.5285 17.9184 7.38983C17.9545 7.25115 17.9501 7.10503 17.9058 6.96876C17.8615 6.8325 17.779 6.71179 17.6682 6.62092C17.5574 6.53005 17.4229 6.47283 17.2806 6.45602L12.1791 5.85002L10.0273 1.18577Z" fill="url(#paint0_linear_145_2373)"/>
</g>
<defs>
<linearGradient id="paint0_linear_145_2373" x1="9.34631" y1="0.75" x2="9.34631" y2="17.175" gradientUnits="userSpaceOnUse">
<stop stop-color="#EB794A"/>
<stop offset="1" stop-color="#FF9A3C"/>
</linearGradient>
<clipPath id="clip0_145_2373">
<rect width="18" height="18" fill="white"/>
</clipPath>
</defs>
</svg>
