<svg width="122" height="123" viewBox="0 0 122 123" fill="none" xmlns="http://www.w3.org/2000/svg">
<path d="M58.4653 10.2644C59.1187 7.6186 62.8813 7.6186 63.5347 10.2644C64.1244 12.6525 67.3891 12.9738 68.4306 10.7454C69.5837 8.27841 73.2716 9.02654 73.4002 11.7467C73.5164 14.203 76.6562 15.1632 78.1105 13.1803C79.7205 10.985 83.1897 12.4477 82.7896 15.1405C82.4281 17.5733 85.3198 19.1347 87.133 17.473C89.1406 15.6332 92.2566 17.7508 91.3422 20.3157C90.5158 22.6336 93.0467 24.7344 95.151 23.4587C97.4814 22.0459 100.125 24.7333 98.7292 27.0738C97.4676 29.189 99.5402 31.7459 101.856 30.9069C104.421 29.9773 106.494 33.129 104.667 35.1553C103.016 36.9864 104.552 39.8989 106.989 39.5308C109.691 39.1228 111.117 42.6169 108.926 44.2498C106.947 45.7249 107.89 48.8799 110.355 48.9984C113.087 49.1298 113.815 52.8337 111.344 54.0077C109.112 55.0677 109.427 58.3442 111.823 58.9455C114.48 59.6124 114.48 63.3876 111.823 64.0545C109.427 64.6558 109.112 67.9323 111.344 68.9923C113.815 70.1663 113.087 73.8702 110.355 74.0016C107.89 74.1201 106.947 77.2751 108.926 78.7502C111.117 80.3831 109.691 83.8772 106.989 83.4692C104.552 83.1011 103.016 86.0136 104.667 87.8447C106.494 89.871 104.421 93.0227 101.856 92.0931C99.5402 91.2541 97.4676 93.811 98.7292 95.9262C100.125 98.2667 97.4814 100.954 95.151 99.5413C93.0467 98.2656 90.5158 100.366 91.3422 102.684C92.2566 105.249 89.1406 107.367 87.133 105.527C85.3198 103.865 82.4281 105.427 82.7896 107.859C83.1897 110.552 79.7205 112.015 78.1105 109.82C76.6562 107.837 73.5164 108.797 73.4002 111.253C73.2716 113.973 69.5837 114.722 68.4306 112.255C67.3891 110.026 64.1244 110.348 63.5347 112.736C62.8813 115.381 59.1187 115.381 58.4653 112.736C57.8756 110.348 54.6109 110.026 53.5694 112.255C52.4163 114.722 48.7284 113.973 48.5998 111.253C48.4836 108.797 45.3438 107.837 43.8895 109.82C42.2795 112.015 38.8103 110.552 39.2104 107.859C39.5719 105.427 36.6802 103.865 34.867 105.527C32.8594 107.367 29.7434 105.249 30.6578 102.684C31.4842 100.366 28.9533 98.2656 26.849 99.5413C24.5186 100.954 21.8748 98.2667 23.2708 95.9262C24.5324 93.811 22.4598 91.2541 20.1443 92.0932C17.5792 93.0227 15.5064 89.871 17.3333 87.8447C18.9841 86.0136 17.4484 83.1011 15.0107 83.4692C12.3092 83.8772 10.8835 80.3831 13.0739 78.7502C15.0525 77.2751 14.1104 74.1201 11.6453 74.0016C8.91256 73.8702 8.18532 70.1663 10.6565 68.9923C12.8877 67.9323 12.5729 64.6558 10.177 64.0545C7.52031 63.3876 7.52032 59.6124 10.177 58.9455C12.5729 58.3442 12.8877 55.0677 10.6565 54.0077C8.18532 52.8337 8.91256 49.1298 11.6453 48.9984C14.1104 48.8799 15.0525 45.7249 13.0739 44.2498C10.8835 42.6169 12.3092 39.1228 15.0107 39.5308C17.4484 39.8989 18.9841 36.9864 17.3333 35.1553C15.5064 33.129 17.5792 29.9773 20.1443 30.9069C22.4598 31.7459 24.5324 29.189 23.2708 27.0738C21.8748 24.7333 24.5186 22.0459 26.849 23.4587C28.9533 24.7344 31.4842 22.6336 30.6578 20.3157C29.7434 17.7508 32.8594 15.6332 34.867 17.473C36.6802 19.1347 39.5719 17.5733 39.2104 15.1405C38.8103 12.4477 42.2795 10.985 43.8895 13.1803C45.3438 15.1632 48.4836 14.203 48.5998 11.7467C48.7284 9.02654 52.4163 8.27841 53.5694 10.7454C54.6109 12.9738 57.8756 12.6525 58.4653 10.2644Z" fill="#D9D9D9"/>
<circle cx="61" cy="61" r="45" fill="#D9D9D9"/>
<circle cx="61" cy="61" r="44.5" stroke="black" stroke-opacity="0.51"/>
<circle cx="61" cy="61" r="19" fill="#D9D9D9"/>
<circle cx="61" cy="61" r="18.5" stroke="black" stroke-opacity="0.51"/>
<path d="M45.853 83.6223L44.8079 93.3756L48.4304 87.2947C48.7636 86.7354 48.9111 86.3504 48.8729 86.1397C48.8193 85.8532 48.6135 85.6033 48.2555 85.39L47.9334 85.1981L48.0813 84.9498L51.2493 86.837L51.1014 87.0853L50.7792 86.8934C50.3944 86.6641 50.0521 86.6179 49.7524 86.7546C49.5687 86.8391 49.3249 87.1365 49.021 87.6466L45.4785 93.5932C45.2386 93.9959 45.1101 94.3134 45.093 94.5457C45.0783 94.7128 45.1307 94.8895 45.2501 95.0758C45.3623 95.2639 45.6041 95.4686 45.9755 95.6899L45.8276 95.9382L43.2502 94.4028L44.1902 85.3144L36.6995 90.5005L34.1222 88.9651L34.2701 88.7168L34.5855 88.9047C34.9748 89.1366 35.3193 89.1842 35.619 89.0475C35.8027 88.9629 36.0466 88.6656 36.3504 88.1555L39.8929 82.2088C40.2261 81.6495 40.3714 81.2632 40.3288 81.0498C40.2751 80.7633 40.0694 80.5134 39.7114 80.3001L39.3959 80.1122L39.5439 79.8639L43.4099 82.1669L43.262 82.4153L42.9398 82.2233C42.5505 81.9914 42.2082 81.9452 41.913 82.0846C41.7293 82.1691 41.4855 82.4664 41.1816 82.9765L37.5591 89.0574L45.6315 83.4904L45.853 83.6223Z" fill="#060505"/>
<path d="M35.423 80.1962C36.2882 79.5794 36.8136 78.8831 36.9994 78.1074C37.1852 77.3316 37.0726 76.6585 36.6616 76.088C36.3876 75.7077 36.0466 75.4526 35.6386 75.3229C35.2233 75.192 34.6936 75.2141 34.0495 75.3892L34.0348 75.1014C34.6776 74.7731 35.3916 74.6503 36.1766 74.7331C36.9574 74.819 37.5792 75.1831 38.0419 75.8254C38.5442 76.5227 38.7045 77.3155 38.5228 78.2038C38.3339 79.091 37.7809 79.8649 36.8639 80.5255C35.8708 81.2409 34.9147 81.5445 33.9958 81.4362C33.0696 81.3267 32.3295 80.8874 31.7754 80.1183C31.3066 79.4675 31.137 78.7776 31.2667 78.0487C31.3921 77.3229 31.814 76.7012 32.5324 76.1837L35.423 80.1962ZM35.0554 80.4611L33.1192 77.7733C32.7625 78.0624 32.5325 78.2955 32.429 78.4727C32.2685 78.7488 32.1967 79.0413 32.2137 79.35C32.2277 79.6545 32.3168 79.9208 32.4812 80.149C32.7339 80.4998 33.098 80.7157 33.5737 80.7967C34.042 80.8766 34.5359 80.7647 35.0554 80.4611Z" fill="#060505"/>
<path d="M30.4345 71.2359C31.4505 70.925 32.1695 70.4311 32.5916 69.7542C33.0136 69.0773 33.1201 68.4032 32.9111 67.7319C32.7717 67.2843 32.5291 66.9343 32.1832 66.682C31.8309 66.4262 31.3215 66.2794 30.655 66.2414L30.7322 65.9637C31.446 65.856 32.1621 65.9658 32.8804 66.2931C33.5937 66.622 34.0681 67.1643 34.3034 67.9202C34.5589 68.7407 34.4597 69.5435 34.0059 70.3285C33.5456 71.11 32.7758 71.6688 31.6967 72.0048C30.5281 72.3686 29.5252 72.3536 28.6879 71.9597C27.8441 71.5624 27.2814 70.9112 26.9996 70.0061C26.7611 69.2403 26.8189 68.5322 27.1728 67.882C27.5218 67.2333 28.119 66.7773 28.9644 66.5141L30.4345 71.2359ZM30.0019 71.3706L29.0171 68.2078C28.5873 68.3689 28.2952 68.5172 28.141 68.6525C27.9012 68.8635 27.7404 69.1181 27.6587 69.4163C27.5755 69.7095 27.5756 69.9904 27.6592 70.2589C27.7878 70.6717 28.0647 70.9918 28.4901 71.2194C28.9091 71.4435 29.413 71.4939 30.0019 71.3706Z" fill="#060505"/>
<path d="M23.5142 60.3779L25.8654 60.3389L25.8377 58.6672L26.3845 58.6581L26.4122 60.3298L31.0522 60.2527C31.5157 60.245 31.8271 60.1748 31.9863 60.0419C32.1455 59.9038 32.2234 59.7306 32.2199 59.5223C32.2171 59.3505 32.1622 59.1847 32.0554 59.025C31.9434 58.8653 31.7825 58.743 31.5727 58.6579L31.5676 58.3533C32.081 58.5271 32.4706 58.7785 32.7366 59.1074C32.9973 59.4365 33.1306 59.7781 33.1364 60.1322C33.1404 60.3717 33.0792 60.6071 32.9528 60.8384C32.8212 61.0698 32.634 61.2422 32.391 61.3557C32.1429 61.4692 31.761 61.5302 31.2455 61.5388L26.4336 61.6187L26.4524 62.7513L26.1947 62.7556C26.0753 62.4711 25.8778 62.1827 25.6021 61.8903C25.3211 61.5929 24.9911 61.3301 24.6123 61.102C24.4124 60.9855 24.0477 60.8248 23.5182 60.6201L23.5142 60.3779Z" fill="#060505"/>
<path d="M28.5387 46.7197L30.1141 43.7793L30.3689 43.9158L30.2914 44.0604C30.1807 44.267 30.143 44.4477 30.1783 44.6025C30.2114 44.7502 30.2945 44.8597 30.4276 44.9311C30.6067 45.027 30.8952 45.0841 31.2931 45.1023L35.2974 45.2712L32.5693 41.9926C32.4228 41.8137 32.2578 41.675 32.0742 41.5766C31.9915 41.5324 31.921 41.5152 31.8624 41.5252C31.7922 41.5349 31.7225 41.5714 31.6531 41.6347C31.5792 41.6955 31.4893 41.8246 31.3835 42.022L31.1287 41.8855L32.2282 39.8334L32.483 39.9699C32.4104 40.1496 32.377 40.3001 32.3829 40.4214C32.3888 40.5428 32.438 40.6991 32.5304 40.8905C32.5726 40.9662 32.7075 41.139 32.9353 41.4087L37.8532 47.3496C38.331 47.9246 38.6177 48.4978 38.7134 49.0691C38.8116 49.6357 38.7611 50.105 38.5619 50.4769C38.4167 50.7477 38.2194 50.9286 37.9698 51.0194C37.7203 51.1102 37.4945 51.1015 37.2925 50.9933C37.0997 50.89 36.9768 50.7444 36.9238 50.5565C36.8779 50.3664 36.914 50.1612 37.0321 49.9409C37.1133 49.7894 37.2744 49.6098 37.5156 49.4023C37.6829 49.2555 37.7788 49.1592 37.8034 49.1133C37.8772 48.9756 37.886 48.7882 37.8298 48.5513C37.776 48.3098 37.5891 47.9969 37.2691 47.6127L36.4139 46.5785L30.4416 46.2946C30.2624 46.2872 30.0266 46.3027 29.7342 46.341C29.5121 46.3697 29.3537 46.406 29.2593 46.45C29.1293 46.5162 28.974 46.6516 28.7935 46.8563L28.5387 46.7197Z" fill="#060505"/>
<path d="M37.2116 34.4688C37.9994 33.7252 38.9144 33.4274 39.9565 33.5755C40.8444 33.7043 41.6011 34.1002 42.2268 34.763C42.6665 35.2289 42.9998 35.8059 43.2268 36.4941C43.4537 37.1823 43.4846 37.8335 43.3195 38.4477C43.1582 39.0583 42.837 39.5906 42.3559 40.0446C41.5719 40.7846 40.6538 41.0602 39.6019 40.8714C38.7148 40.7131 37.9621 40.3063 37.3436 39.651C36.8932 39.1738 36.5638 38.5895 36.3553 37.8982C36.1471 37.1995 36.1307 36.5561 36.3061 35.968C36.478 35.3761 36.7798 34.8763 37.2116 34.4688ZM37.384 35.0043C37.1833 35.1938 37.0378 35.4457 36.9477 35.7599C36.8578 36.0668 36.8915 36.4288 37.0489 36.8461C37.2063 37.2633 37.5067 37.7067 37.95 38.1764C38.665 38.9339 39.4312 39.4461 40.2488 39.7129C41.0702 39.9761 41.7271 39.8754 42.2195 39.4106C42.5869 39.0639 42.7469 38.6264 42.6996 38.0981C42.6522 37.5699 42.28 36.9365 41.5829 36.1979C40.7106 35.2737 39.8254 34.7341 38.9272 34.5792C38.3151 34.4694 37.8007 34.6111 37.384 35.0043Z" fill="#060505"/>
<path d="M49.2276 27.4562L51.0511 31.3901C51.3993 32.1414 51.6294 32.5945 51.7414 32.7492C51.8558 32.8971 51.9662 32.9866 52.0725 33.0177C52.1835 33.0466 52.291 33.037 52.3949 32.9888C52.5414 32.9209 52.6882 32.8041 52.8352 32.6383L53.0495 32.8404L51.4786 34.5416L51.1596 34.6894L50.5222 33.3144C50.245 34.1777 49.9961 34.7552 49.7754 35.0469C49.5547 35.3387 49.2813 35.5601 48.9553 35.7113C48.5914 35.8799 48.2266 35.9227 47.8609 35.8397C47.4977 35.7497 47.1875 35.5634 46.9302 35.2808C46.6729 34.9982 46.4041 34.5545 46.1237 33.9497L44.7799 31.0507C44.6375 30.7435 44.5059 30.5462 44.385 30.4587C44.2641 30.3713 44.1232 30.3275 43.9624 30.3274C43.8042 30.3204 43.556 30.3981 43.218 30.5605L43.0964 30.2982L45.3717 29.2436L47.3858 33.5885C47.6661 34.1934 47.9541 34.5421 48.2496 34.6348C48.5499 34.7252 48.8488 34.7014 49.1465 34.5634C49.3497 34.4693 49.5493 34.2992 49.7454 34.0534C49.9461 33.8053 50.1405 33.4196 50.3284 32.8962L48.6232 29.2175C48.4523 28.8489 48.2688 28.6326 48.0726 28.5685C47.879 28.4975 47.5673 28.5559 47.1377 28.7436L47.0161 28.4813L49.2276 27.4562Z" fill="#060505"/>
<path d="M55.9854 25.8576L56.2042 27.452C56.6517 26.3076 57.1876 25.6926 57.812 25.6069C58.0958 25.5679 58.3426 25.6234 58.5524 25.7733C58.7616 25.9181 58.8817 26.104 58.9129 26.3311C58.9405 26.5323 58.8968 26.7118 58.7818 26.8695C58.6667 27.0273 58.5163 27.1189 58.3306 27.1444C58.15 27.1692 57.9341 27.1094 57.683 26.9652C57.4363 26.815 57.2588 26.7474 57.1505 26.7623C57.0576 26.775 56.964 26.8404 56.8698 26.9585C56.6667 27.2019 56.4746 27.5832 56.2935 28.1022L56.7599 31.5C56.8137 31.8922 56.9035 32.1821 57.0291 32.3699C57.1153 32.5 57.2499 32.5998 57.433 32.6693C57.616 32.7388 57.8675 32.7516 58.1874 32.7077L58.2256 32.9864L54.5956 33.4847L54.5574 33.206C54.9186 33.1564 55.1791 33.0628 55.3389 32.9252C55.4566 32.825 55.5288 32.681 55.5557 32.4933C55.5694 32.4021 55.548 32.15 55.4913 31.7372L55.1141 28.9896C55.0008 28.164 54.9154 27.6763 54.8581 27.5264C54.8052 27.3707 54.7273 27.2631 54.6245 27.2036C54.5269 27.1434 54.411 27.1225 54.2768 27.141C54.1169 27.1629 53.9416 27.2264 53.751 27.3314L53.6353 27.0634L55.6603 25.9022L55.9854 25.8576Z" fill="#060505"/>
<path d="M74.9851 33.71C74.4529 34.5117 73.8304 35.0436 73.1175 35.3058C72.4066 35.5631 71.7349 35.5639 71.1024 35.308C70.3492 35.0033 69.8205 34.4214 69.5163 33.5623C69.2122 32.7032 69.2779 31.7353 69.7135 30.6586C70.1354 29.6158 70.7872 28.8934 71.6689 28.4917C72.5555 28.0918 73.4333 28.0677 74.3023 28.4194C74.9541 28.6831 75.4198 29.0737 75.6992 29.5913C75.9805 30.104 76.046 30.5463 75.8956 30.918C75.8214 31.1015 75.7004 31.2268 75.5329 31.2938C75.3721 31.358 75.1854 31.3471 74.973 31.2611C74.6881 31.1459 74.5104 30.9672 74.4398 30.7251C74.3987 30.5905 74.4213 30.375 74.5076 30.0784C74.5987 29.7837 74.5901 29.5274 74.4816 29.3094C74.3713 29.0962 74.1664 28.929 73.867 28.8079C73.3842 28.6126 72.9233 28.6339 72.4842 28.8721C71.9017 29.187 71.4532 29.7331 71.1387 30.5105C70.8184 31.3023 70.7282 32.0805 70.8684 32.8451C71.0153 33.6069 71.4195 34.1215 72.0809 34.3892C72.5541 34.5806 73.0444 34.5907 73.5519 34.4196C73.9073 34.305 74.3287 34.0063 74.8161 33.5237L74.9851 33.71Z" fill="#060505"/>
<path d="M80.1143 35.191C79.4203 35.9956 79.0751 36.7967 79.0788 37.5943C79.0824 38.392 79.3515 39.0192 79.8862 39.4758C80.2426 39.7803 80.6344 39.9471 81.0615 39.9763C81.496 40.0049 82.0053 39.8577 82.5895 39.5347L82.6721 39.8108C82.1255 40.2823 81.4611 40.571 80.6789 40.6769C79.9 40.7788 79.2096 40.5727 78.6077 40.0585C77.9542 39.5004 77.6103 38.7683 77.576 37.8622C77.549 36.9555 77.9025 36.0725 78.6365 35.2131C79.4315 34.2824 80.2881 33.7606 81.2065 33.6477C82.1322 33.5343 82.9554 33.7854 83.6762 34.401C84.2861 34.922 84.6146 35.5518 84.6616 36.2907C84.712 37.0256 84.4497 37.7296 83.8747 38.4029L80.1143 35.191ZM80.4086 34.8465L82.9274 36.9979C83.2053 36.6324 83.3734 36.3514 83.4318 36.1547C83.5222 35.8483 83.5226 35.5472 83.4328 35.2514C83.347 34.9589 83.1971 34.7213 82.9833 34.5387C82.6546 34.2579 82.2496 34.1346 81.7683 34.1688C81.2944 34.2024 80.8412 34.4283 80.4086 34.8465Z" fill="#060505"/>
<path d="M93.3087 40.135L85.362 45.3264C84.987 45.5713 84.7555 45.7599 84.6676 45.8919C84.5826 46.0284 84.5444 46.1747 84.553 46.3308C84.566 46.484 84.6737 46.7154 84.8759 47.025L84.6404 47.1788L82.722 44.2421L82.9574 44.0883C83.1369 44.363 83.2877 44.532 83.4099 44.5952C83.5321 44.6585 83.6771 44.6757 83.845 44.647C84.0128 44.6182 84.2821 44.4828 84.6527 44.2406L90.0944 40.6857C90.7703 40.2442 91.1746 39.9583 91.3072 39.8281C91.4443 39.695 91.5183 39.5751 91.5294 39.4683C91.5434 39.3659 91.5162 39.2623 91.4478 39.1577C91.3738 39.0443 91.2449 38.9232 91.0612 38.7944L91.2175 38.5336L93.1165 39.8407L93.3087 40.135Z" fill="#060505"/>
<path d="M90.6093 49.7854C89.5907 50.0877 88.8676 50.5756 88.4399 51.2489C88.0122 51.9222 87.9 52.5954 88.1034 53.2685C88.239 53.7172 88.4787 54.0692 88.8224 54.3244C89.1726 54.5831 89.6807 54.7343 90.3468 54.7779L90.2673 55.0549C89.5526 55.1566 88.8375 55.0408 88.122 54.7074C87.4114 54.3726 86.9417 53.8263 86.7127 53.0684C86.4641 52.2458 86.57 51.4439 87.0304 50.6628C87.4973 49.8851 88.2717 49.3328 89.3536 49.0059C90.5253 48.6519 91.5281 48.6754 92.362 49.0763C93.2024 49.4807 93.7596 50.1366 94.0338 51.044C94.2658 51.8118 94.2021 52.5193 93.8427 53.1666C93.4883 53.8123 92.8873 54.2632 92.0397 54.5193L90.6093 49.7854ZM91.0431 49.6544L92.0012 52.8253C92.4324 52.6678 92.7257 52.522 92.8811 52.388C93.1226 52.179 93.2855 51.9258 93.3697 51.6283C93.4555 51.3358 93.4576 51.0549 93.3763 50.7857C93.2513 50.3718 92.977 50.0494 92.5535 49.8182C92.1365 49.5906 91.633 49.536 91.0431 49.6544Z" fill="#060505"/>
<path d="M93.8539 60.6797C94.7969 61.4001 95.2568 62.1611 95.2336 62.9629C95.2123 63.6969 94.8787 64.3282 94.2329 64.8565C93.5923 65.385 92.728 65.6335 91.6399 65.6019C90.3696 65.5651 89.3588 65.1137 88.6076 64.2478C87.9622 63.5048 87.6524 62.6882 87.6782 61.798C87.6903 61.3815 87.7781 60.9593 87.9416 60.5316C88.105 60.1091 88.3442 59.6784 88.6591 59.2394L96.0701 59.4544C96.8822 59.478 97.3826 59.4717 97.5712 59.4354C97.7597 59.4044 97.889 59.3483 97.9591 59.2669C98.0292 59.1856 98.0661 59.0825 98.0697 58.9575C98.0739 58.8117 98.0376 58.6283 97.9606 58.4072L98.2371 58.3058L99.0494 60.4788L99.0392 60.8302L93.8539 60.6797ZM93.3541 60.6652L89.0747 60.541C88.8066 60.799 88.6009 61.0666 88.4574 61.3438C88.3189 61.6264 88.2454 61.916 88.2368 62.2128C88.223 62.6865 88.4706 63.134 88.9794 63.5552C89.4881 63.9816 90.2396 64.2092 91.234 64.238C92.1503 64.2646 92.859 64.0794 93.3604 63.6823C93.8667 63.2906 94.1275 62.8344 94.1426 62.3138C94.1506 62.0379 94.0883 61.7599 93.9557 61.4799C93.8577 61.2686 93.6571 60.9971 93.3541 60.6652Z" fill="#060505"/>
<path d="M93.3759 71.7864L91.8516 71.27C92.6756 72.1815 92.9865 72.9357 92.7843 73.5326C92.6924 73.8039 92.5325 74 92.3046 74.1207C92.0816 74.2432 91.8616 74.2676 91.6446 74.1941C91.4522 74.1289 91.3111 74.0096 91.2214 73.8363C91.1317 73.6629 91.1169 73.4874 91.177 73.3098C91.2355 73.1372 91.3854 72.9707 91.6267 72.8105C91.8712 72.6569 92.011 72.5283 92.0461 72.4247C92.0762 72.3359 92.0594 72.223 91.9958 72.086C91.8688 71.7955 91.6135 71.4533 91.2301 71.0594L87.9817 69.9589C87.6068 69.8319 87.3073 69.7827 87.0832 69.8112C86.9282 69.8302 86.7788 69.9061 86.6349 70.0388C86.4909 70.1715 86.3672 70.3908 86.2635 70.6966L85.9972 70.6064L87.1728 67.1361L87.4392 67.2263C87.3222 67.5716 87.2896 67.8465 87.3413 68.051C87.3784 68.2011 87.475 68.33 87.6309 68.4378C87.7064 68.4909 87.9415 68.5843 88.3361 68.718L90.9629 69.6079C91.7522 69.8753 92.2267 70.0168 92.3864 70.0324C92.5493 70.0546 92.6804 70.033 92.7795 69.9676C92.877 69.9071 92.9474 69.8128 92.9909 69.6845C93.0427 69.5316 93.0642 69.3464 93.0554 69.1289L93.3468 69.1452L93.4812 71.4756L93.3759 71.7864Z" fill="#060505"/>
<path d="M92.3794 82.0445C92.2582 82.2266 92.0907 82.3373 91.877 82.3765C91.6647 82.4229 91.4675 82.3855 91.2853 82.2643C91.1032 82.1432 90.9904 81.9742 90.9469 81.7576C90.9004 81.5453 90.9378 81.3481 91.059 81.166C91.1801 80.9838 91.3491 80.871 91.5657 80.8275C91.7823 80.7839 91.9817 80.8228 92.1638 80.9439C92.346 81.0651 92.4581 81.2304 92.5002 81.4398C92.5437 81.6565 92.5034 81.858 92.3794 82.0445ZM88.9046 80.5114L84.1173 77.3263C83.7444 77.0782 83.4778 76.9383 83.3174 76.9067C83.1585 76.8823 83.014 76.9019 82.8841 76.9656C82.7513 77.0336 82.5911 77.2086 82.4036 77.4904L82.1694 77.3346L84.0952 74.4402L84.3293 74.596C84.136 74.8865 84.0344 75.1004 84.0244 75.2376C84.0144 75.3749 84.0557 75.5149 84.1483 75.6579C84.238 75.8051 84.4671 76.0014 84.8357 76.2466L87.1318 77.7742C87.7779 78.2041 88.2093 78.463 88.4261 78.5509C88.585 78.6129 88.7122 78.6287 88.8075 78.5982C88.9071 78.5707 88.9944 78.5005 89.0695 78.3878C89.1502 78.2664 89.2158 78.0973 89.2662 77.8806L89.5609 77.9453L89.095 80.2252L88.9046 80.5114Z" fill="#060505"/>
<path d="M84.8191 88.1991L83.241 86.4557L82.0015 87.5777L81.6345 87.1723L82.8739 86.0503L79.7596 82.6099C79.4486 82.2662 79.1906 82.0782 78.9857 82.0459C78.7769 82.0171 78.5953 82.0726 78.4409 82.2124C78.3135 82.3278 78.2249 82.4782 78.1751 82.6638C78.1288 82.8532 78.1427 83.0549 78.2169 83.2688L77.991 83.4732C77.7836 82.9725 77.7161 82.5137 77.7884 82.097C77.8643 81.6841 78.0335 81.3588 78.2961 81.1211C78.4737 80.9603 78.6911 80.8513 78.9484 80.794C79.2092 80.7406 79.4623 80.768 79.7076 80.8761C79.9565 80.988 80.2539 81.2351 80.6 81.6174L83.8296 85.1852L84.6695 84.425L84.8425 84.6161C84.707 84.8933 84.6201 85.2319 84.5818 85.6319C84.543 86.0393 84.5626 86.4607 84.6405 86.896C84.6846 87.1231 84.8039 87.5033 84.9986 88.0366L84.8191 88.1991Z" fill="#060505"/>
<path d="M78.2817 90.2147L75.2785 91.6671L75.1527 91.4068L75.3004 91.3354C75.5114 91.2334 75.6481 91.1094 75.7106 90.9634C75.7707 90.8245 75.7679 90.687 75.7021 90.551C75.6137 90.3682 75.4138 90.1524 75.1027 89.9037L71.9628 87.4128L72.2421 91.6689C72.2554 91.8997 72.3073 92.1089 72.398 92.2964C72.4389 92.3808 72.4859 92.4362 72.5391 92.4625C72.6016 92.496 72.6795 92.5075 72.7728 92.497C72.8683 92.4913 73.0169 92.4397 73.2186 92.3422L73.3444 92.6024L71.2485 93.616L71.1227 93.3558C71.2871 93.2531 71.4026 93.151 71.4691 93.0494C71.5357 92.9478 71.5878 92.7924 71.6255 92.5832C71.636 92.4972 71.6284 92.2781 71.6028 91.926L71.1173 84.229C71.0689 83.4829 71.174 82.8507 71.4324 82.3323C71.6861 81.8162 72.0029 81.4663 72.3827 81.2826C72.6593 81.1488 72.9253 81.1186 73.1805 81.1918C73.4358 81.2651 73.6133 81.4049 73.7131 81.6112C73.8083 81.8081 73.8221 81.9981 73.7545 82.1813C73.6799 82.362 73.5301 82.5068 73.305 82.6156C73.1503 82.6904 72.9143 82.7409 72.5972 82.767C72.3756 82.7874 72.2414 82.8089 72.1945 82.8316C72.0538 82.8996 71.9366 83.046 71.8428 83.2707C71.7443 83.4977 71.7115 83.8606 71.7446 84.3596L71.8282 85.6989L76.4925 89.4398C76.6331 89.5512 76.8329 89.6773 77.092 89.8181C77.2885 89.9255 77.438 89.9892 77.5402 90.0092C77.6843 90.0321 77.8895 90.0138 78.1559 89.9545L78.2817 90.2147Z" fill="#060505"/>
<path d="M61 87L62.3505 90.6495L66 92L62.3505 93.3505L61 97L59.6495 93.3505L56 92L59.6495 90.6495L61 87Z" fill="#060505"/>
</svg>
