<svg width="117" height="22" viewBox="0 0 117 22" fill="none" xmlns="http://www.w3.org/2000/svg">
<path d="M7.53516 0.480469L12.8438 2.25L13.2305 1.55859C13.3711 1.30859 13.4688 1.15625 13.5234 1.10156C13.5859 1.03906 13.6562 1.00781 13.7344 1.00781C13.8125 1.00781 13.875 1.03516 13.9219 1.08984C13.9766 1.14453 14.0039 1.20703 14.0039 1.27734C14.0039 1.38672 13.9102 1.60156 13.7227 1.92188L11.25 6.19922L13.1836 6.12891C13.793 6.10547 14.5 6.19141 15.3047 6.38672C16.1172 6.58203 16.8125 6.88672 17.3906 7.30078C17.9766 7.70703 18.4336 8.19141 18.7617 8.75391C19.0977 9.30859 19.2656 9.92188 19.2656 10.5938C19.2656 11.8281 18.7461 13.043 17.707 14.2383C16.6758 15.4258 14.8359 16.6797 12.1875 18C11.2734 17.625 10.2109 17.2305 9 16.8164C6.76562 17.8867 4.94141 18.4219 3.52734 18.4219C2.51953 18.4219 1.74219 18.2031 1.19531 17.7656C0.65625 17.3203 0.386719 16.8086 0.386719 16.2305C0.386719 15.6133 0.714844 15.0508 1.37109 14.543C2.02734 14.0273 3 13.7695 4.28906 13.7695C4.79688 13.7695 5.42969 13.8242 6.1875 13.9336L7.06641 12.3398L5.41406 12.4102C5.00781 12.418 4.46094 12.3633 3.77344 12.2461C3.08594 12.1211 2.51953 11.9219 2.07422 11.6484C1.63672 11.375 1.30859 11.0391 1.08984 10.6406C0.871094 10.2422 0.761719 9.82422 0.761719 9.38672C0.761719 8.69141 1.00781 8.07422 1.5 7.53516C1.8125 7.19141 2.32812 6.88281 3.04688 6.60938L3.03516 6.46875C3.03516 5.74219 3.35547 4.91016 3.99609 3.97266C4.64453 3.02734 5.82422 1.86328 7.53516 0.480469ZM11.7773 4.125C10.5508 3.51562 9.59375 3.10937 8.90625 2.90625C8.21875 2.69531 7.61328 2.58984 7.08984 2.58984C6.35547 2.58984 5.75781 2.79688 5.29688 3.21094C4.83594 3.625 4.60547 4.10938 4.60547 4.66406C4.60547 5.21094 4.80078 5.66016 5.19141 6.01172C5.58984 6.36328 6.1875 6.53906 6.98438 6.53906C7.51562 6.53906 8.71094 6.44141 10.5703 6.24609L11.7773 4.125ZM9.28125 8.47266C8.27344 8.59766 7.29688 8.66016 6.35156 8.66016C5.28906 8.66016 4.53516 8.53516 4.08984 8.28516C3.64453 8.03516 3.3125 7.64453 3.09375 7.11328C2.53125 7.47266 2.25 7.91797 2.25 8.44922C2.25 8.93359 2.46875 9.33203 2.90625 9.64453C3.48438 10.0508 4.47266 10.2539 5.87109 10.2539C6.51953 10.2539 7.34375 10.2109 8.34375 10.125L9.28125 8.47266ZM9 10.0781C10.8672 9.86719 12.1641 9.76172 12.8906 9.76172C13.8828 9.76172 14.6406 9.98828 15.1641 10.4414C15.6875 10.8867 15.9492 11.4219 15.9492 12.0469C15.9492 12.5938 15.6914 13.125 15.1758 13.6406C14.668 14.1562 13.5938 14.7695 11.9531 15.4805L14.2734 16.1953C15.2969 15.5625 16.0859 14.8789 16.6406 14.1445C17.1953 13.4102 17.4727 12.6016 17.4727 11.7188C17.4727 11.1406 17.2969 10.5742 16.9453 10.0195C16.6016 9.45703 16.0703 9.01172 15.3516 8.68359C14.6328 8.34766 13.8047 8.17969 12.8672 8.17969C12.1094 8.17969 11.1406 8.25781 9.96094 8.41406L9 10.0781ZM6.72656 14.0273C7.5 14.1836 8.12891 14.3281 8.61328 14.4609C9.10547 14.5938 9.97656 14.8594 11.2266 15.2578C12.9609 14.4453 13.8281 13.6367 13.8281 12.832C13.8281 12.582 13.7148 12.3555 13.4883 12.1523C13.2695 11.9492 12.9883 11.8477 12.6445 11.8477C12.2227 11.8477 11.7031 11.8945 11.0859 11.9883C9.36719 12.2227 8.23828 12.3398 7.69922 12.3398L6.72656 14.0273ZM8.21484 16.5703C6.21484 15.9688 4.59375 15.668 3.35156 15.668C2.71094 15.668 2.20312 15.8086 1.82812 16.0898C1.57031 16.2773 1.44141 16.5078 1.44141 16.7812C1.44141 17.0703 1.57031 17.3008 1.82812 17.4727C2.23438 17.7539 2.82422 17.8945 3.59766 17.8945C4.78516 17.8945 6.32422 17.4531 8.21484 16.5703ZM21.7373 6.79688L25.0069 2.75391H25.3467L25.2295 5.98828H27.585V7.3125H25.2295V15.1992L26.542 16.1719L27.292 15.5859L27.585 15.9375L25.0069 18C24.1241 17.1016 23.1241 16.4922 22.0069 16.1719V15.9375C22.3194 15.7266 22.5264 15.5078 22.628 15.2812C22.7608 14.9922 22.8272 14.5742 22.8272 14.0273V7.3125H21.7373V6.79688ZM38.1309 6.01172L38.5528 6.17578C38.1309 6.83203 37.8614 7.33594 37.7442 7.6875C37.6348 8.03125 37.5802 8.5 37.5802 9.09375V14.0859C37.5802 14.9141 37.6427 15.4336 37.7677 15.6445C37.9005 15.8477 38.0567 15.9492 38.2364 15.9492C38.3302 15.9492 38.4278 15.9258 38.5294 15.8789C38.5919 15.8398 38.7755 15.6992 39.0802 15.457L39.338 15.8438L36.7247 18C36.1231 17.5312 35.7208 17.1133 35.5177 16.7461C35.3145 16.3711 35.2013 15.8516 35.1778 15.1875L31.6153 18C30.2794 16.9062 29.6114 15.8281 29.6114 14.7656C29.6114 14.0547 29.7559 13.3867 30.045 12.7617C30.4278 11.9414 31.088 10.9844 32.0255 9.89062L30.6192 6.89062L30.7833 6.5625C31.088 6.59375 31.3145 6.60938 31.463 6.60938C32.3848 6.60938 33.1973 6.24219 33.9005 5.50781C34.4708 5.84375 35.0919 6.11328 35.7638 6.31641C36.4434 6.51953 36.963 6.62109 37.3223 6.62109C37.4864 6.62109 37.6114 6.59375 37.6973 6.53906C37.7833 6.47656 37.9278 6.30078 38.1309 6.01172ZM35.1778 8.25L31.17 7.01953L32.5997 10.043L35.1778 11.25V8.25ZM35.1778 11.7305L32.3419 10.4062C31.9044 11.3594 31.6856 12.1953 31.6856 12.9141C31.6856 14.1797 32.2598 15.2227 33.4083 16.043L35.1778 14.6133V11.7305ZM47.9972 5.50781L49.7667 7.62891L47.9972 9.19922L46.5206 7.33594L45.3605 8.39062V15.2227L46.6964 16.1836L47.9034 15.2227L48.173 15.5977L45.173 18C44.5323 17.4297 43.9933 17.0195 43.5558 16.7695C43.1261 16.5195 42.6534 16.3242 42.1378 16.1836V15.9258C42.4816 15.6836 42.7042 15.4414 42.8058 15.1992C42.9152 14.9492 42.9698 14.4766 42.9698 13.7812V9C42.9698 8.39844 42.8995 8 42.7589 7.80469C42.6261 7.60156 42.4777 7.5 42.3136 7.5C42.1339 7.5 41.8878 7.65625 41.5753 7.96875L41.2941 7.62891L43.7667 5.50781C44.4308 6.01562 44.8839 6.45703 45.1261 6.83203C45.2823 7.06641 45.3605 7.39062 45.3605 7.80469L47.9972 5.50781ZM57.922 1.94531L58.2033 2.27344C57.0392 3.0625 56.172 3.90625 55.6017 4.80469C54.8673 5.96094 54.5002 7.21875 54.5002 8.57812C54.5002 10.2266 55.0431 11.75 56.1291 13.1484C56.5978 12.7656 56.8791 12.4453 56.9728 12.1875C57.0666 11.9219 57.1134 11.2031 57.1134 10.0312V4.78125L62.1291 0.597656C63.3009 1.05859 64.2228 1.35938 64.8947 1.5C65.5666 1.63281 66.3556 1.69922 67.2619 1.69922H67.5314L67.7189 2.12109L65.7853 3.97266C64.4806 3.83203 63.008 3.35547 61.3673 2.54297L61.4963 15.9258L61.9416 15.9375C63.0666 15.9375 64.09 15.7461 65.0119 15.3633C65.9416 14.9805 66.9025 14.3594 67.8947 13.5L68.2463 13.8398C67.5197 14.8398 66.8048 15.6172 66.1017 16.1719C65.4064 16.7266 64.5666 17.1719 63.5822 17.5078C62.5978 17.8359 61.6213 18 60.6525 18C59.215 18 57.8595 17.6523 56.5861 16.957C55.3205 16.2617 54.3283 15.2656 53.6095 13.9688C52.8908 12.6719 52.5314 11.3359 52.5314 9.96094C52.5314 8.26562 53.0392 6.69531 54.0548 5.25C54.8517 4.11719 56.1408 3.01562 57.922 1.94531ZM60.84 2.47266L59.4689 3.65625V9C59.4689 9.66406 59.4338 10.1055 59.3634 10.3242C59.2853 10.6133 59.1056 10.9219 58.8244 11.25C58.2541 11.9141 57.4572 12.6719 56.4338 13.5234C57.0588 14.2188 57.7267 14.7539 58.4377 15.1289C59.1564 15.4961 59.9963 15.7422 60.9572 15.8672L60.84 2.47266ZM75.4875 1.20703V1.51172C74.8703 1.83203 74.4328 2.22656 74.175 2.69531C73.925 3.15625 73.8 3.85937 73.8 4.80469V15.2227L75.1359 16.2188L75.6516 15.7969L75.9445 16.2188L73.6008 18C72.8898 17.3828 72.3586 16.9727 72.007 16.7695C71.6555 16.5664 71.1906 16.3828 70.6125 16.2188V15.9609C70.8313 15.8281 70.9992 15.6602 71.1164 15.457C71.2414 15.2539 71.3273 15.0156 71.3742 14.7422C71.3898 14.6484 71.4016 14.1797 71.4094 13.3359V4.96875C71.4094 4.25781 71.382 3.76562 71.3273 3.49219C71.2727 3.21094 71.1633 2.94531 70.9992 2.69531C70.8352 2.4375 70.5578 2.15234 70.1672 1.83984L70.3547 1.60547C71.0656 1.80859 71.7023 2.22266 72.2648 2.84766C72.8508 2.23047 73.3781 1.80859 73.8469 1.58203C74.3234 1.35547 74.8703 1.23047 75.4875 1.20703ZM81.2405 1.5H82.7288L81.1116 4.03125H80.6428L81.2405 1.5ZM80.3498 5.50781L82.4358 7.23047L81.51 8.13281V14.5078C81.51 15.1797 81.5725 15.6172 81.6975 15.8203C81.8225 16.0234 81.9514 16.125 82.0842 16.125C82.178 16.125 82.2639 16.1055 82.342 16.0664C82.4514 16.0117 82.678 15.8555 83.0217 15.5977L83.303 15.9609L80.6428 18C80.0178 17.5547 79.6155 17.1367 79.4358 16.7461C79.2561 16.3477 79.1663 15.6562 79.1663 14.6719V8.13281L78.2873 7.23047L80.3498 5.50781ZM93.0169 5.50781L94.9388 7.30078L96.0755 6.19922L96.4036 6.51562C95.8567 7.01562 95.5247 7.39453 95.4075 7.65234C95.2513 7.99609 95.1731 8.46875 95.1731 9.07031V14.6367C95.1731 15.1523 95.2552 15.5352 95.4192 15.7852C95.5208 15.9492 95.6341 16.0312 95.7591 16.0312C95.8684 16.0312 96.1263 15.8789 96.5325 15.5742L96.8138 15.9375L94.2942 18C93.6458 17.5078 93.2278 17.0742 93.0403 16.6992C92.8606 16.3164 92.7708 15.7031 92.7708 14.8594V8.40234L91.4934 7.30078L89.595 8.8125V15.4805L90.4388 16.3242L88.3645 18L86.2786 16.3242L87.1927 15.4805V9.49219C87.1927 8.64062 87.1067 8.06641 86.9348 7.76953C86.8177 7.56641 86.6848 7.46484 86.5364 7.46484C86.3802 7.46484 86.1458 7.58594 85.8333 7.82812L85.552 7.5L88.0481 5.50781C88.7356 5.99219 89.1653 6.375 89.3372 6.65625C89.5091 6.9375 89.595 7.32812 89.595 7.82812V8.22656L93.0169 5.50781ZM102.836 5.50781L105.883 7.24219L104.641 9.08203L102.344 7.75781V15.2227L104.641 16.2656L105.883 15.3867L106 15.8789L103.094 18C102.344 17.5781 101.703 17.2695 101.172 17.0742C100.641 16.8711 99.9886 16.6953 99.2152 16.5469V16.2656C99.4886 16.0781 99.6683 15.875 99.7542 15.6562C99.8792 15.3516 99.9417 14.875 99.9417 14.2266V7.55859C100.918 7.11328 101.883 6.42969 102.836 5.50781ZM112.632 1.20703L112.749 1.48828C112.195 1.84766 111.816 2.23047 111.613 2.63672C111.41 3.04297 111.308 3.6875 111.308 4.57031V8.39062L114.929 5.50781C115.702 6.00781 116.206 6.49219 116.441 6.96094C116.675 7.42188 116.792 8.21094 116.792 9.32812V14.6367C116.792 15.6523 116.687 16.3945 116.476 16.8633C116.14 17.6289 115.519 18.3477 114.613 19.0195C113.425 19.9102 111.913 20.6797 110.077 21.3281L109.913 20.8945C111.406 20.2773 112.445 19.7148 113.031 19.207C113.617 18.6992 113.999 18.1602 114.179 17.5898C114.312 17.1602 114.378 16.043 114.378 14.2383V9.32812C114.378 8.78125 114.324 8.40234 114.214 8.19141C114.05 7.90234 113.749 7.61719 113.312 7.33594L111.308 8.96484V15.4922L112.14 16.3242L110.077 18L107.992 16.3242L108.917 15.3984V4.73438C108.917 3.76562 108.831 3.10156 108.66 2.74219C108.488 2.38281 108.148 2.05859 107.64 1.76953L107.769 1.48828C108.183 1.60547 108.515 1.73828 108.765 1.88672C109.015 2.02734 109.343 2.27734 109.749 2.63672C110.226 2.18359 110.683 1.85156 111.12 1.64062C111.558 1.42969 112.062 1.28516 112.632 1.20703Z" fill="white"/>
</svg>
