<svg width="241" height="258" viewBox="0 0 241 258" fill="none" xmlns="http://www.w3.org/2000/svg">
<g filter="url(#filter0_b_145_2330)">
<rect x="37.6582" y="71.0186" width="116.305" height="164.765" rx="8" transform="rotate(-20.0411 37.6582 71.0186)" fill="#050405"/>
</g>
<path d="M99.1482 207.45C99.2246 207.422 99.2999 207.397 99.3743 207.374C99.7361 207.261 100.001 206.911 99.9341 206.538L99.8888 206.286C99.809 205.844 99.2505 205.693 98.9586 206.035C98.7578 206.286 98.509 206.405 98.2609 206.181C97.3582 205.315 95.8548 205.863 95.7215 207.107C95.6782 207.444 95.4091 207.507 95.0939 207.445C94.6504 207.371 94.3205 207.846 94.5448 208.236L94.6891 208.486C94.8514 208.769 95.1931 208.893 95.4988 208.782L99.1532 207.448L99.1482 207.45Z" fill="#D5CFC0" fill-opacity="0.2"/>
<path d="M104.097 214.4C104.1 214.401 104.104 214.399 104.106 214.396L106.057 210.791C106.255 210.425 106.023 209.976 105.611 209.925C105.246 209.915 105.267 209.689 105.207 209.178L105.196 209.079C105.091 208.068 103.956 207.525 103.103 208.077C102.916 208.18 102.735 208.091 102.657 207.971L102.247 207.381C102.156 207.251 101.957 207.278 101.905 207.428C101.873 207.517 101.912 207.615 101.993 207.665C102.042 207.694 102.091 207.726 102.138 207.759C102.526 208.036 102.866 208.387 103.149 208.817C103.432 209.247 103.665 209.712 103.844 210.203C104.091 210.881 104.214 211.501 104.216 212.073C104.219 212.645 104.11 213.149 103.898 213.588C103.685 214.026 103.377 214.408 102.971 214.74C102.565 215.071 102.076 215.335 101.51 215.542C100.8 215.801 100.435 216.586 100.694 217.295L102.065 221.054C102.106 221.168 102.233 221.227 102.348 221.186C102.464 221.143 102.523 221.013 102.478 220.898L101.008 217.135C100.958 216.998 101.048 216.742 101.158 216.714C102.01 216.511 102.819 216.37 103.645 216.211C104.21 216.101 104.461 215.446 104.124 214.978C104.005 214.806 103.999 214.576 104.088 214.405C104.09 214.402 104.093 214.4 104.097 214.4Z" fill="#D5CFC0" fill-opacity="0.2"/>
<path d="M100.576 213.667C100.581 213.667 100.587 213.666 100.592 213.664C101.063 213.49 101.391 213.187 101.567 212.763C101.744 212.338 101.71 211.788 101.463 211.111C101.215 210.431 101.038 209.68 101.249 208.988L102.431 205.118C102.547 204.737 102.333 204.333 101.951 204.218C101.571 204.102 101.168 204.317 101.052 204.697L99.7231 209.063C99.6296 209.37 99.3625 209.584 99.0608 209.694C98.5076 209.896 98.2228 210.508 98.4246 211.061L98.651 211.682C98.7459 211.942 98.7536 212.226 98.6727 212.491C98.3154 213.663 96.673 213.707 96.2533 212.557L96.0143 211.902C95.9638 211.763 95.8368 211.671 95.7123 211.592L94.3319 210.775C93.9383 210.542 93.4464 210.853 93.4883 211.309C93.5059 211.451 93.4242 211.636 93.2158 211.677C92.2076 211.804 91.6885 212.951 92.2588 213.792L92.315 213.875C92.603 214.303 92.7609 214.468 92.4865 214.706C92.2037 215.01 92.3158 215.504 92.7023 215.656L96.5225 217.16C96.7016 217.226 96.8499 217.413 96.8694 217.624L96.8747 217.695C96.9002 218.039 96.8617 218.384 96.7611 218.714L96.1581 220.692C96.0419 221.073 96.2568 221.476 96.638 221.592C97.0187 221.707 97.4213 221.493 97.5374 221.112L99.5122 214.635C99.6382 214.222 99.9512 213.892 100.357 213.744L100.559 213.67C100.565 213.668 100.57 213.667 100.576 213.667Z" fill="#D5CFC0" fill-opacity="0.2"/>
<g filter="url(#filter1_b_145_2330)">
<path d="M29.3907 63.3912C29.3884 63.4039 29.3795 63.4145 29.3674 63.4189L26.9268 64.3092C25.7588 64.7353 25.1573 66.0276 25.5834 67.1956L26.288 69.1274C26.3249 69.2285 26.4328 69.2705 26.5339 69.2336C29.0576 68.3131 31.8504 69.6129 32.771 72.1366C33.6916 74.6603 32.3917 77.4531 29.8681 78.3737C29.7695 78.4097 29.7124 78.5148 29.7484 78.6134L30.4128 80.4348C30.7844 81.4534 31.9316 81.9316 33.0143 81.9905C34.9003 82.0931 36.6346 83.2957 37.3227 85.1822C38.0011 87.042 37.4736 89.048 36.1391 90.3431C35.3293 91.129 34.7332 92.2786 35.1199 93.3387C35.5066 94.3987 36.703 94.8945 37.8285 94.9744C39.6835 95.106 41.3787 96.3012 42.0572 98.161C42.7356 100.021 42.2081 102.027 40.8736 103.322C40.0638 104.108 39.4677 105.257 39.8544 106.318C40.2411 107.378 41.4374 107.873 42.563 107.953C44.418 108.085 46.1132 109.28 46.7916 111.14C47.4701 113 46.9426 115.006 45.608 116.301C44.7983 117.087 44.2022 118.236 44.5889 119.296C44.9756 120.356 46.1719 120.852 47.2975 120.932C49.1524 121.064 50.8477 122.259 51.5261 124.119C52.2046 125.979 51.6771 127.985 50.3425 129.28C49.5328 130.066 48.9366 131.215 49.3233 132.275C49.71 133.335 50.9064 133.831 52.0319 133.911C53.8869 134.043 55.5822 135.238 56.2606 137.098C56.939 138.957 56.4115 140.963 55.077 142.259C54.2672 143.044 53.6711 144.194 54.0578 145.254C54.4445 146.314 55.6408 146.81 56.7664 146.89C58.6214 147.021 60.3166 148.217 60.9951 150.077C61.6735 151.936 61.146 153.942 59.8115 155.237C59.0017 156.023 58.4056 157.173 58.7923 158.233C59.179 159.293 60.3753 159.789 61.5009 159.869C63.3559 160 65.0511 161.196 65.7295 163.055C66.408 164.915 65.8805 166.921 64.5459 168.216C63.7362 169.002 63.1401 170.152 63.5268 171.212C63.9134 172.272 65.1098 172.768 66.2353 172.848C68.0903 172.979 69.7856 174.174 70.464 176.034C71.1424 177.894 70.6149 179.9 69.2804 181.195C68.4707 181.981 67.8745 183.131 68.2612 184.191C68.6479 185.251 69.8443 185.747 70.9698 185.826C72.8248 185.958 74.5201 187.153 75.1985 189.013C75.8769 190.873 75.3494 192.879 74.0149 194.174C73.2051 194.96 72.609 196.11 72.9957 197.17C73.3824 198.23 74.5787 198.725 75.7043 198.805C77.5593 198.937 79.2545 200.132 79.933 201.992C80.6114 203.852 80.0839 205.858 78.7494 207.153C77.9396 207.939 77.3435 209.088 77.7302 210.148C78.1169 211.209 79.3132 211.704 80.4388 211.784C82.2938 211.916 83.989 213.111 84.6674 214.971C85.3459 216.831 84.8184 218.837 83.4838 220.132C82.6741 220.918 82.078 222.067 82.4646 223.127C82.8513 224.187 84.0477 224.683 85.1732 224.763C87.0282 224.895 88.7235 226.09 89.4019 227.95C90.0329 229.679 89.6207 231.536 88.4864 232.829C87.6005 233.839 86.8721 235.21 87.3325 236.472C87.7928 237.734 89.1891 238.384 90.451 237.923L92.6497 237.121C92.7002 237.103 92.7262 237.047 92.7078 236.997C91.7872 234.473 93.0871 231.68 95.6107 230.759C98.1344 229.839 100.927 231.139 101.848 233.662C101.866 233.713 101.922 233.739 101.973 233.72L106.36 232.12C106.41 232.102 106.436 232.046 106.418 231.995C105.497 229.472 106.797 226.679 109.321 225.758C111.844 224.838 114.637 226.138 115.558 228.661C115.576 228.712 115.632 228.738 115.683 228.719L120.07 227.119C120.12 227.1 120.146 227.045 120.128 226.994C119.207 224.47 120.507 221.678 123.031 220.757C125.555 219.836 128.347 221.136 129.268 223.66C129.286 223.71 129.342 223.736 129.393 223.718L133.78 222.118C133.83 222.099 133.856 222.043 133.838 221.993C132.917 219.469 134.217 216.676 136.741 215.756C139.265 214.835 142.057 216.135 142.978 218.659C142.996 218.709 143.052 218.735 143.103 218.717L147.49 217.116C147.54 217.098 147.566 217.042 147.548 216.992C146.627 214.468 147.927 211.675 150.451 210.755C152.975 209.834 155.768 211.134 156.688 213.658C156.707 213.708 156.762 213.734 156.813 213.716L161.2 212.115C161.251 212.097 161.277 212.041 161.258 211.991C160.338 209.467 161.637 206.674 164.161 205.753C166.685 204.833 169.478 206.133 170.398 208.656C170.417 208.707 170.472 208.733 170.523 208.714L174.91 207.114C174.961 207.096 174.987 207.04 174.968 206.989C174.048 204.466 175.347 201.673 177.871 200.752C180.395 199.832 183.188 201.132 184.108 203.655C184.127 203.706 184.182 203.732 184.233 203.713L188.62 202.113C188.671 202.094 188.697 202.039 188.678 201.988C187.758 199.464 189.058 196.672 191.581 195.751C194.105 194.83 196.898 196.13 197.818 198.654C197.837 198.704 197.893 198.73 197.943 198.712L200.16 197.903C201.417 197.445 202.005 196.023 202.225 194.703C202.503 193.032 203.647 191.557 205.353 190.934C207.041 190.318 208.847 190.697 210.134 191.771C211.183 192.646 212.578 193.373 213.861 192.905L213.931 192.88C215.194 192.419 215.844 191.021 215.384 189.758L214.582 187.562C214.564 187.511 214.508 187.485 214.458 187.504C211.934 188.424 209.141 187.125 208.221 184.601C207.3 182.077 208.6 179.284 211.124 178.364C211.174 178.345 211.2 178.29 211.182 178.239L209.844 174.573C209.826 174.522 209.77 174.496 209.72 174.515C207.196 175.435 204.403 174.136 203.482 171.612C202.562 169.088 203.862 166.295 206.385 165.375C206.436 165.356 206.462 165.301 206.443 165.25L205.106 161.584C205.088 161.533 205.032 161.507 204.981 161.526C202.458 162.446 199.665 161.147 198.744 158.623C197.824 156.099 199.124 153.306 201.647 152.386C201.698 152.367 201.724 152.311 201.705 152.261L200.368 148.595C200.35 148.544 200.294 148.518 200.243 148.537C197.72 149.457 194.927 148.157 194.006 145.634C193.086 143.11 194.385 140.317 196.909 139.397C196.96 139.378 196.986 139.322 196.967 139.272L195.63 135.606C195.611 135.555 195.556 135.529 195.505 135.548C192.981 136.468 190.189 135.168 189.268 132.645C188.347 130.121 189.647 127.328 192.171 126.408C192.221 126.389 192.247 126.333 192.229 126.283L190.892 122.617C190.873 122.566 190.817 122.54 190.767 122.559C188.243 123.479 185.45 122.179 184.53 119.656C183.609 117.132 184.909 114.339 187.433 113.419C187.483 113.4 187.509 113.344 187.491 113.294L186.153 109.628C186.135 109.577 186.079 109.551 186.029 109.57C183.505 110.49 180.712 109.19 179.792 106.667C178.871 104.143 180.171 101.35 182.695 100.43C182.745 100.411 182.771 100.355 182.753 100.305L181.415 96.6387C181.397 96.5883 181.341 96.5623 181.291 96.5807C178.767 97.5013 175.974 96.2014 175.053 93.6777C174.133 91.1541 175.433 88.3612 177.956 87.4406C178.007 87.4222 178.033 87.3664 178.014 87.3159L176.677 83.6497C176.659 83.5992 176.603 83.5732 176.552 83.5917C174.029 84.5123 171.236 83.2124 170.315 80.6887C169.395 78.165 170.695 75.3722 173.218 74.4516C173.269 74.4332 173.295 74.3773 173.276 74.3269L171.939 70.6607C171.92 70.6102 171.865 70.5842 171.814 70.6026C169.29 71.5232 166.498 70.2233 165.577 67.6997C164.656 65.176 165.956 62.3832 168.48 61.4626C168.53 61.4442 168.556 61.3883 168.538 61.3378L167.201 57.6717C167.182 57.6212 167.126 57.5952 167.076 57.6136C164.552 58.5342 161.759 57.2343 160.839 54.7106C159.918 52.187 161.218 49.3941 163.742 48.4735C163.792 48.4551 163.818 48.3993 163.8 48.3488L162.463 44.6826C162.444 44.6322 162.388 44.6062 162.338 44.6246C159.814 45.5452 157.021 44.2453 156.101 41.7216C155.18 39.198 156.48 36.4051 159.004 35.4845C159.054 35.4661 159.08 35.4103 159.062 35.3598L158.386 33.507C158 32.4488 156.815 31.9451 155.693 31.8471C153.87 31.688 152.216 30.5038 151.547 28.671C150.903 26.9044 151.347 25.0093 152.537 23.7145C153.374 22.8043 154.022 21.5431 153.598 20.3816C153.168 19.203 151.864 18.5961 150.686 19.026L148.244 19.9165C148.194 19.9349 148.168 19.9908 148.186 20.0413C149.107 22.5649 147.807 25.3577 145.283 26.2783C142.76 27.1989 139.967 25.8991 139.046 23.3754C139.028 23.3249 138.972 23.2989 138.922 23.3173L136.705 24.126C135.448 24.5844 134.86 26.0068 134.64 27.326C134.361 28.9971 133.217 30.4727 131.512 31.0949C129.814 31.7141 127.999 31.3285 126.71 30.2417C125.678 29.3703 124.297 28.6519 123.028 29.115C121.759 29.5781 121.165 31.0163 120.936 32.3481C120.65 34.0091 119.509 35.4732 117.812 36.0924C116.114 36.7116 114.299 36.326 113.01 35.2391C111.978 34.3678 110.598 33.6494 109.328 34.1125C108.059 34.5756 107.465 36.0138 107.236 37.3456C106.95 39.0065 105.809 40.4707 104.112 41.0899C102.415 41.7091 100.599 41.3235 99.3105 40.2366C98.2778 39.3652 96.8976 38.6469 95.6282 39.11C94.3587 39.5731 93.7653 41.0113 93.5361 42.3431C93.2503 44.004 92.1093 45.4682 90.4119 46.0874C88.7146 46.7066 86.8988 46.321 85.6106 45.2341C84.5778 44.3627 83.1977 43.6444 81.9283 44.1075C80.6588 44.5706 80.0654 46.0088 79.8362 47.3405C79.5504 49.0015 78.4094 50.4657 76.712 51.0849C75.0147 51.7041 73.1989 51.3185 71.9107 50.2316C70.8779 49.3602 69.4978 48.6419 68.2283 49.105C66.9589 49.5681 66.3654 51.0063 66.1363 52.338C65.8505 53.999 64.7094 55.4632 63.0121 56.0824C61.3148 56.7016 59.499 56.316 58.2108 55.2291C57.178 54.3577 55.7979 53.6394 54.5284 54.1025C53.259 54.5656 52.6655 56.0038 52.4364 57.3355C52.1506 58.9965 51.0095 60.4607 49.3122 61.0799C47.6149 61.699 45.799 61.3135 44.5109 60.2266C43.4781 59.3552 42.098 58.6369 40.8285 59.1C39.5591 59.5631 38.9656 61.0013 38.7365 62.333C38.4507 63.994 37.3096 65.4582 35.6123 66.0774C33.16 66.972 30.4602 65.7692 29.4621 63.3842C29.4479 63.3503 29.3972 63.3551 29.3907 63.3912ZM139.451 33.6185C143.602 32.1044 148.194 34.2418 149.708 38.3926L200.905 178.742C202.419 182.893 200.282 187.485 196.131 188.999L101.482 223.526C97.3312 225.04 92.7389 222.903 91.2248 218.752L40.0276 78.4022C38.5135 74.2514 40.6509 69.6592 44.8016 68.1451L139.451 33.6185Z" fill="#D2CCBD" fill-opacity="0.1"/>
</g>
<path d="M89.8724 170.136L91.0008 173.157L90.7044 173.268C90.2684 172.637 89.887 172.21 89.5602 171.988C89.2313 171.76 88.8464 171.626 88.4055 171.584C88.1601 171.563 87.7766 171.65 87.2551 171.845L86.4235 172.155L89.6395 180.768C89.8527 181.339 90.0161 181.684 90.1298 181.804C90.2489 181.922 90.4196 182.003 90.6417 182.045C90.8673 182.079 91.1393 182.037 91.4576 181.918L91.8282 181.78L91.9419 182.085L86.096 184.268L85.9822 183.963L86.3527 183.825C86.6766 183.704 86.9158 183.549 87.0704 183.36C87.1844 183.229 87.2477 183.056 87.2604 182.838C87.2716 182.684 87.1726 182.327 86.9635 181.767L83.7475 173.155L82.9406 173.456C82.1886 173.737 81.7019 174.1 81.4804 174.545C81.1689 175.168 81.1037 175.915 81.285 176.785L80.9721 176.902L79.8437 173.88L89.8724 170.136ZM97.2978 167.185C99.0517 166.455 100.689 166.434 102.21 167.124C103.736 167.811 104.809 168.983 105.428 170.641C105.957 172.057 106.007 173.458 105.58 174.843C105.015 176.681 103.731 177.973 101.728 178.721C99.7187 179.472 97.9111 179.371 96.3049 178.42C95.0359 177.668 94.1257 176.553 93.5743 175.077C92.9553 173.419 93.0024 171.828 93.7157 170.305C94.4324 168.774 95.6265 167.734 97.2978 167.185ZM97.5934 167.675C96.5724 168.056 95.9904 168.867 95.8474 170.109C95.7335 171.127 95.9758 172.438 96.5743 174.041C97.2856 175.946 98.1462 177.229 99.1561 177.89C99.8605 178.352 100.633 178.427 101.472 178.113C102.038 177.902 102.459 177.588 102.735 177.173C103.087 176.641 103.254 175.941 103.236 175.072C103.216 174.197 102.974 173.14 102.511 171.899C101.959 170.423 101.41 169.371 100.863 168.743C100.314 168.11 99.769 167.722 99.2281 167.58C98.6927 167.436 98.1478 167.468 97.5934 167.675ZM111.477 169.03L112.633 172.125C112.859 172.729 113.037 173.097 113.167 173.23C113.302 173.355 113.48 173.429 113.701 173.453C113.928 173.474 114.294 173.391 114.799 173.202L114.913 173.507L109.24 175.625L109.126 175.321C109.642 175.128 109.973 174.951 110.119 174.79C110.269 174.622 110.351 174.447 110.365 174.267C110.384 174.085 110.281 173.692 110.056 173.088L107.35 165.842C107.125 165.238 106.945 164.874 106.811 164.749C106.68 164.616 106.504 164.538 106.282 164.515C106.061 164.491 105.695 164.574 105.184 164.765L105.071 164.46L109.937 162.643C111.54 162.045 112.796 161.901 113.706 162.211C114.617 162.522 115.232 163.105 115.552 163.962C115.822 164.686 115.829 165.391 115.571 166.075C115.314 166.759 114.825 167.342 114.104 167.823C113.621 168.154 112.745 168.556 111.477 169.03ZM109.436 163.562L111.237 168.387C111.422 168.331 111.562 168.285 111.655 168.25C112.325 168 112.767 167.61 112.982 167.079C113.194 166.543 113.145 165.858 112.833 165.024C112.524 164.195 112.116 163.656 111.61 163.407C111.105 163.158 110.492 163.168 109.773 163.436L109.436 163.562ZM126.325 163.447L127.494 166.576C127.719 167.18 127.897 167.548 128.028 167.681C128.162 167.806 128.34 167.88 128.562 167.904C128.783 167.927 129.149 167.844 129.66 167.653L129.773 167.958L124.059 170.092L123.945 169.787C124.461 169.594 124.793 169.418 124.939 169.257C125.089 169.088 125.17 168.914 125.184 168.733C125.204 168.551 125.101 168.158 124.875 167.554L122.17 160.308C121.944 159.705 121.764 159.34 121.63 159.215C121.499 159.083 121.323 159.004 121.102 158.981C120.88 158.957 120.514 159.041 120.004 159.231L119.89 158.927L125.077 156.99C126.428 156.486 127.451 156.21 128.146 156.163C128.841 156.116 129.481 156.271 130.065 156.628C130.647 156.98 131.064 157.494 131.316 158.169C131.623 158.992 131.581 159.784 131.189 160.543C130.937 161.025 130.503 161.478 129.886 161.902L133.981 164.679C134.515 165.037 134.878 165.248 135.072 165.313C135.36 165.399 135.656 165.395 135.958 165.301L136.072 165.606L132.556 166.919L127.058 163.174L126.325 163.447ZM124.281 157.972L126.107 162.863L126.576 162.688C127.339 162.403 127.885 162.121 128.212 161.842C128.538 161.558 128.74 161.195 128.818 160.753C128.901 160.303 128.832 159.784 128.613 159.197C128.295 158.346 127.86 157.793 127.308 157.536C126.761 157.277 126.045 157.313 125.162 157.643L124.281 157.972ZM142.435 159.609L138.491 161.081L138.428 162.343C138.409 162.763 138.444 163.091 138.532 163.327C138.649 163.64 138.861 163.823 139.169 163.877C139.35 163.91 139.74 163.839 140.338 163.666L140.452 163.97L136.738 165.357L136.625 165.052C137.003 164.842 137.271 164.555 137.428 164.189C137.584 163.819 137.692 163.137 137.753 162.145L138.42 151.745L138.576 151.686L146.021 159.339C146.73 160.063 147.249 160.491 147.58 160.624C147.83 160.724 148.131 160.725 148.481 160.625L148.595 160.93L143.194 162.947L143.08 162.642L143.302 162.559C143.736 162.397 144.018 162.223 144.149 162.037C144.237 161.904 144.25 161.755 144.188 161.59C144.151 161.491 144.097 161.396 144.025 161.304C143.996 161.259 143.836 161.084 143.548 160.779L142.435 159.609ZM141.928 159.104L138.829 155.88L138.552 160.364L141.928 159.104ZM154.685 145.934L155.813 148.956L155.516 149.067C155.08 148.435 154.699 148.008 154.372 147.786C154.043 147.559 153.659 147.424 153.218 147.382C152.972 147.362 152.589 147.448 152.067 147.643L151.236 147.954L154.452 156.566C154.665 157.137 154.828 157.483 154.942 157.603C155.061 157.721 155.232 157.801 155.454 157.843C155.679 157.878 155.951 157.836 156.27 157.717L156.64 157.578L156.754 157.883L150.908 160.066L150.794 159.761L151.165 159.623C151.489 159.502 151.728 159.347 151.882 159.158C151.996 159.028 152.06 158.854 152.072 158.637C152.084 158.482 151.985 158.125 151.776 157.565L148.56 148.953L147.753 149.254C147.001 149.535 146.514 149.898 146.293 150.344C145.981 150.967 145.916 151.713 146.097 152.584L145.784 152.701L144.656 149.679L154.685 145.934ZM160.803 144.381L162.5 148.926L162.722 148.843C163.43 148.579 163.86 148.165 164.013 147.601C164.165 147.038 164.123 146.306 163.887 145.406L164.2 145.289L166.383 151.135L166.07 151.252C165.766 150.64 165.432 150.171 165.066 149.844C164.706 149.516 164.36 149.336 164.029 149.303C163.696 149.265 163.263 149.345 162.73 149.544L163.905 152.689C164.134 153.304 164.299 153.671 164.4 153.789C164.506 153.906 164.647 153.982 164.823 154.016C164.998 154.051 165.245 154.009 165.563 153.89L166.23 153.641C167.273 153.251 168.017 152.698 168.463 151.982C168.914 151.263 169.092 150.358 168.997 149.268L169.302 149.154L170.125 152.89L160.475 156.494L160.361 156.189L160.732 156.051C161.056 155.93 161.295 155.775 161.449 155.586C161.563 155.455 161.624 155.283 161.631 155.067C161.642 154.913 161.543 154.556 161.334 153.996L158.592 146.652C158.403 146.147 158.274 145.842 158.203 145.737C158.077 145.565 157.92 145.455 157.733 145.406C157.467 145.33 157.152 145.36 156.79 145.495L156.42 145.633L156.306 145.329L165.651 141.839L166.884 145.141L166.571 145.258C166.111 144.51 165.669 144.015 165.247 143.772C164.831 143.528 164.328 143.421 163.74 143.453C163.395 143.469 162.801 143.635 161.955 143.951L160.803 144.381ZM172.282 152.085L172.168 151.78L172.538 151.642C172.862 151.521 173.091 151.379 173.224 151.217C173.361 151.047 173.437 150.859 173.454 150.653C173.461 150.519 173.356 150.164 173.141 149.587L170.398 142.243C170.185 141.672 170.022 141.326 169.908 141.206C169.794 141.086 169.625 141.009 169.399 140.974C169.177 140.932 168.91 140.969 168.597 141.086L168.226 141.225L168.112 140.92L173.11 139.054C174.444 138.556 175.585 138.336 176.533 138.395C177.692 138.469 178.695 138.86 179.542 139.57C180.394 140.277 181.032 141.199 181.457 142.335C181.75 143.12 181.894 143.892 181.89 144.651C181.883 145.404 181.76 146.072 181.522 146.655C181.281 147.233 180.946 147.752 180.517 148.212C180.092 148.665 179.528 149.104 178.823 149.529C178.513 149.72 177.999 149.95 177.279 150.219L172.282 152.085ZM172.606 139.964L175.859 148.676C176.031 149.137 176.159 149.411 176.241 149.499C176.324 149.587 176.428 149.639 176.553 149.655C176.732 149.682 176.961 149.643 177.241 149.539C178.158 149.196 178.741 148.622 178.99 147.816C179.333 146.725 179.173 145.29 178.509 143.511C177.974 142.079 177.321 141.018 176.552 140.33C175.945 139.793 175.316 139.509 174.666 139.477C174.207 139.454 173.521 139.617 172.606 139.964Z" fill="#D3CDBF"/>
<path d="M99.6056 188.181C100.411 187.881 101.222 187.927 102.039 188.32C102.859 188.709 103.439 189.361 103.781 190.276C104.133 191.218 104.127 192.111 103.765 192.955C103.403 193.8 102.799 194.379 101.954 194.695C101.101 195.014 100.269 194.978 99.4601 194.589C98.654 194.199 98.0711 193.522 97.7113 192.558C97.3435 191.573 97.3788 190.644 97.8174 189.771C98.1984 189.014 98.7944 188.484 99.6056 188.181ZM99.6433 188.548C99.0883 188.755 98.72 189.127 98.5382 189.664C98.3118 190.332 98.383 191.16 98.752 192.148C99.13 193.161 99.6375 193.859 100.274 194.243C100.762 194.534 101.278 194.577 101.824 194.373C102.407 194.156 102.802 193.749 103.01 193.154C103.222 192.557 103.145 191.769 102.779 190.79C102.383 189.729 101.879 189.016 101.266 188.65C100.776 188.361 100.235 188.327 99.6433 188.548ZM103.441 186.911L105.124 186.282L110.653 189.518L109.318 185.941C109.175 185.56 109.044 185.338 108.923 185.275C108.763 185.189 108.56 185.192 108.316 185.283L108.101 185.363L108.038 185.194L110.197 184.388L110.26 184.557L110.041 184.639C109.779 184.737 109.622 184.886 109.572 185.085C109.541 185.208 109.59 185.443 109.72 185.791L111.673 191.019L111.508 191.081L105.553 187.612L106.98 191.432C107.122 191.813 107.252 192.036 107.37 192.099C107.533 192.184 107.736 192.182 107.976 192.092L108.196 192.01L108.259 192.179L106.1 192.985L106.037 192.816L106.252 192.736C106.517 192.637 106.675 192.487 106.726 192.288C106.756 192.165 106.707 191.93 106.577 191.582L104.966 187.269C104.708 187.126 104.519 187.038 104.399 187.006C104.283 186.973 104.124 186.961 103.922 186.971C103.823 186.976 103.684 187.013 103.504 187.08L103.441 186.911ZM120.947 180.212L121.748 182.357L121.579 182.421C121.37 182.029 121.149 181.739 120.914 181.548C120.683 181.357 120.409 181.238 120.094 181.193C119.778 181.147 119.48 181.177 119.199 181.282C118.882 181.4 118.656 181.596 118.522 181.868C118.386 182.138 118.364 182.396 118.457 182.643C118.527 182.832 118.657 182.98 118.846 183.087C119.121 183.245 119.684 183.382 120.537 183.497C121.233 183.592 121.717 183.684 121.99 183.773C122.265 183.858 122.501 183.992 122.698 184.176C122.898 184.358 123.045 184.573 123.137 184.82C123.312 185.29 123.281 185.764 123.042 186.242C122.806 186.716 122.401 187.06 121.828 187.274C121.648 187.341 121.473 187.391 121.304 187.422C121.204 187.442 120.987 187.461 120.653 187.478C120.321 187.491 120.115 187.512 120.036 187.542C119.959 187.57 119.907 187.616 119.878 187.679C119.853 187.74 119.856 187.847 119.888 187.998L119.719 188.061L118.925 185.934L119.094 185.871C119.339 186.287 119.571 186.581 119.788 186.753C120.004 186.923 120.277 187.03 120.606 187.073C120.938 187.116 121.269 187.076 121.598 186.953C121.98 186.811 122.242 186.598 122.387 186.315C122.534 186.03 122.557 185.751 122.454 185.476C122.397 185.324 122.297 185.186 122.154 185.062C122.013 184.937 121.829 184.841 121.603 184.773C121.449 184.726 121.052 184.653 120.411 184.556C119.769 184.455 119.302 184.358 119.01 184.266C118.722 184.172 118.48 184.04 118.284 183.87C118.088 183.7 117.943 183.486 117.847 183.23C117.681 182.785 117.709 182.339 117.931 181.891C118.152 181.44 118.526 181.116 119.053 180.919C119.383 180.796 119.762 180.747 120.191 180.77C120.391 180.783 120.525 180.776 120.595 180.75C120.675 180.72 120.73 180.673 120.762 180.609C120.796 180.541 120.801 180.43 120.778 180.275L120.947 180.212ZM127.902 177.776L128.514 179.205L128.34 179.27C128.211 179.027 128.097 178.861 127.998 178.773C127.837 178.631 127.662 178.549 127.473 178.526C127.286 178.498 127.064 178.533 126.808 178.628L125.934 178.954L127.704 183.693C127.846 184.075 127.976 184.297 128.094 184.361C128.257 184.446 128.46 184.443 128.7 184.353L128.915 184.273L128.979 184.442L126.348 185.424L126.285 185.255L126.505 185.173C126.767 185.075 126.923 184.926 126.974 184.727C127.005 184.604 126.955 184.369 126.825 184.021L125.056 179.282L124.31 179.561C124.02 179.669 123.823 179.767 123.716 179.855C123.58 179.973 123.485 180.135 123.434 180.341C123.383 180.548 123.399 180.796 123.482 181.084L123.308 181.149L122.838 179.667L127.902 177.776ZM133.847 180.258L131.446 181.155L131.391 182.291C131.377 182.57 131.392 182.77 131.437 182.888C131.472 182.983 131.547 183.05 131.663 183.09C131.781 183.126 131.993 183.099 132.3 183.009L132.363 183.178L130.41 183.908L130.347 183.738C130.589 183.596 130.734 183.474 130.783 183.372C130.884 183.168 130.945 182.806 130.967 182.287L131.243 176.367L131.403 176.308L135.489 180.661C135.817 181.011 136.075 181.222 136.262 181.295C136.451 181.363 136.675 181.358 136.934 181.279L136.997 181.448L134.55 182.362L134.486 182.193C134.729 182.088 134.88 181.985 134.939 181.883C135.001 181.78 135.013 181.678 134.976 181.577C134.926 181.443 134.786 181.254 134.555 181.01L133.847 180.258ZM133.593 179.967L131.605 177.853L131.461 180.763L133.593 179.967ZM144 178.833L142.344 179.451L139.161 177.335C139.008 177.4 138.882 177.45 138.785 177.486C138.745 177.501 138.703 177.517 138.657 177.534C138.61 177.548 138.562 177.563 138.512 177.578L139.185 179.38C139.33 179.771 139.464 179.997 139.584 180.06C139.75 180.151 139.949 180.153 140.181 180.066L140.423 179.976L140.487 180.145L137.829 181.137L137.766 180.968L137.999 180.881C138.261 180.783 138.417 180.628 138.466 180.415C138.495 180.296 138.443 180.06 138.311 179.706L136.815 175.699C136.669 175.309 136.536 175.083 136.415 175.02C136.246 174.93 136.044 174.929 135.809 175.017L135.576 175.104L135.513 174.935L137.772 174.091C138.431 173.845 138.934 173.713 139.282 173.694C139.631 173.671 139.962 173.749 140.276 173.927C140.591 174.102 140.815 174.367 140.948 174.724C141.091 175.105 141.089 175.483 140.944 175.857C140.802 176.229 140.491 176.571 140.013 176.882L141.959 178.183C142.404 178.482 142.757 178.66 143.017 178.715C143.278 178.771 143.584 178.754 143.936 178.664L144 178.833ZM138.404 177.29C138.462 177.268 138.513 177.251 138.557 177.238C138.599 177.222 138.634 177.209 138.662 177.199C139.253 176.978 139.651 176.683 139.854 176.316C140.06 175.947 140.089 175.564 139.941 175.168C139.797 174.78 139.557 174.512 139.224 174.362C138.892 174.208 138.526 174.206 138.126 174.355C137.949 174.421 137.721 174.539 137.441 174.71L138.404 177.29ZM147.75 170.203L148.68 172.259L148.538 172.312C148.113 171.751 147.673 171.398 147.219 171.251C146.765 171.105 146.292 171.123 145.801 171.306C145.389 171.46 145.057 171.704 144.803 172.039C144.548 172.37 144.41 172.801 144.388 173.33C144.37 173.858 144.488 174.462 144.742 175.142C144.951 175.703 145.223 176.156 145.557 176.5C145.89 176.845 146.278 177.06 146.72 177.145C147.165 177.229 147.619 177.184 148.083 177.011C148.485 176.861 148.808 176.643 149.053 176.357C149.296 176.068 149.506 175.599 149.684 174.949L149.86 174.987C149.755 175.655 149.543 176.195 149.224 176.606C148.905 177.017 148.46 177.329 147.89 177.542C146.862 177.926 145.924 177.842 145.075 177.29C144.442 176.88 143.983 176.291 143.696 175.522C143.464 174.903 143.391 174.283 143.475 173.661C143.559 173.039 143.79 172.495 144.169 172.031C144.55 171.562 145.029 171.22 145.605 171.004C146.053 170.837 146.536 170.782 147.054 170.838C147.208 170.858 147.312 170.857 147.367 170.837C147.449 170.806 147.51 170.75 147.549 170.669C147.598 170.557 147.611 170.422 147.59 170.263L147.75 170.203ZM156.02 172.39L156.183 172.366L156.28 174.247L151.477 176.041L151.414 175.872L151.648 175.784C151.91 175.687 152.065 175.531 152.115 175.318C152.142 175.197 152.09 174.959 151.958 174.605L150.463 170.603C150.319 170.216 150.185 169.989 150.064 169.923C149.895 169.834 149.693 169.833 149.458 169.92L149.224 170.007L149.161 169.838L151.97 168.789L152.033 168.959C151.703 169.078 151.482 169.196 151.372 169.31C151.265 169.423 151.205 169.537 151.193 169.653C151.18 169.769 151.243 170.011 151.381 170.38L152.836 174.277C152.931 174.53 153.02 174.695 153.104 174.772C153.164 174.822 153.239 174.848 153.326 174.85C153.414 174.852 153.657 174.779 154.057 174.629L154.51 174.46C154.985 174.283 155.306 174.123 155.472 173.981C155.638 173.839 155.767 173.65 155.86 173.414C155.951 173.175 156.005 172.834 156.02 172.39ZM160.407 172.514L160.47 172.683L157.812 173.675L157.749 173.506L157.969 173.424C158.225 173.328 158.383 173.184 158.443 172.992C158.48 172.867 158.429 172.618 158.29 172.246L156.793 168.239C156.676 167.925 156.579 167.725 156.502 167.639C156.443 167.574 156.356 167.532 156.241 167.512C156.079 167.489 155.925 167.505 155.779 167.56L155.559 167.642L155.496 167.473L158.154 166.48L158.217 166.649L157.993 166.733C157.74 166.828 157.583 166.971 157.523 167.164C157.483 167.29 157.533 167.539 157.672 167.911L159.168 171.918C159.285 172.232 159.383 172.432 159.46 172.518C159.519 172.583 159.607 172.625 159.725 172.643C159.884 172.667 160.036 172.652 160.183 172.597L160.407 172.514ZM158.821 166.231L160.504 165.602L166.034 168.838L164.698 165.261C164.556 164.88 164.424 164.658 164.303 164.596C164.143 164.51 163.94 164.512 163.696 164.603L163.481 164.684L163.418 164.514L165.577 163.708L165.641 163.877L165.421 163.959C165.159 164.057 165.002 164.206 164.952 164.406C164.921 164.528 164.971 164.763 165.1 165.111L167.053 170.339L166.888 170.401L160.933 166.933L162.36 170.752C162.502 171.134 162.632 171.356 162.75 171.42C162.913 171.505 163.116 171.502 163.357 171.412L163.576 171.33L163.639 171.499L161.48 172.306L161.417 172.136L161.632 172.056C161.897 171.957 162.055 171.808 162.106 171.608C162.137 171.485 162.087 171.25 161.957 170.903L160.346 166.589C160.088 166.446 159.899 166.358 159.779 166.327C159.663 166.294 159.504 166.282 159.302 166.291C159.204 166.297 159.064 166.333 158.884 166.4L158.821 166.231ZM171.864 161.199L172.793 163.255L172.651 163.308C172.226 162.747 171.787 162.394 171.333 162.247C170.878 162.1 170.406 162.119 169.915 162.302C169.503 162.456 169.17 162.7 168.916 163.035C168.661 163.366 168.523 163.796 168.502 164.326C168.484 164.854 168.602 165.458 168.855 166.138C169.065 166.699 169.337 167.152 169.67 167.496C170.004 167.841 170.392 168.055 170.833 168.141C171.278 168.225 171.733 168.18 172.196 168.007C172.599 167.857 172.922 167.639 173.166 167.353C173.409 167.064 173.62 166.595 173.797 165.945L173.973 165.983C173.868 166.651 173.656 167.191 173.337 167.602C173.018 168.013 172.574 168.325 172.003 168.538C170.976 168.922 170.037 168.838 169.189 168.286C168.556 167.876 168.096 167.286 167.809 166.518C167.578 165.899 167.504 165.278 167.588 164.656C167.672 164.034 167.904 163.491 168.283 163.026C168.664 162.557 169.142 162.215 169.718 162C170.167 161.833 170.65 161.777 171.168 161.834C171.321 161.853 171.425 161.853 171.48 161.832C171.562 161.802 171.623 161.746 171.663 161.665C171.711 161.553 171.725 161.418 171.704 161.259L171.864 161.199ZM176.087 163.062L178.969 161.986L178.307 160.211C178.188 159.894 178.09 159.692 178.013 159.607C177.954 159.542 177.866 159.5 177.747 159.482C177.589 159.457 177.437 159.473 177.29 159.527L177.071 159.609L177.007 159.44L179.661 158.449L179.724 158.619L179.504 158.701C179.358 158.755 179.232 158.842 179.127 158.961C179.048 159.046 179.009 159.146 179.01 159.26C179.013 159.371 179.071 159.578 179.185 159.883L180.679 163.886C180.797 164.2 180.894 164.4 180.971 164.485C181.03 164.55 181.117 164.593 181.232 164.612C181.394 164.635 181.548 164.619 181.694 164.565L181.914 164.483L181.977 164.652L179.324 165.643L179.26 165.473L179.48 165.391C179.733 165.297 179.89 165.153 179.95 164.961C179.99 164.835 179.94 164.586 179.801 164.214L179.096 162.324L176.214 163.4L176.919 165.29C177.037 165.604 177.134 165.804 177.211 165.89C177.27 165.954 177.359 165.996 177.477 166.014C177.635 166.039 177.788 166.023 177.934 165.969L178.158 165.885L178.221 166.054L175.564 167.047L175.5 166.878L175.72 166.796C175.976 166.7 176.134 166.556 176.194 166.363C176.231 166.238 176.18 165.99 176.041 165.618L174.546 161.615C174.428 161.298 174.33 161.096 174.253 161.011C174.194 160.946 174.107 160.904 173.992 160.884C173.83 160.861 173.677 160.877 173.53 160.931L173.311 161.013L173.247 160.844L175.905 159.852L175.968 160.021L175.744 160.105C175.598 160.159 175.472 160.246 175.367 160.365C175.291 160.449 175.253 160.548 175.254 160.663C175.254 160.774 175.311 160.982 175.425 161.287L176.087 163.062Z" fill="#D3CDBF"/>
<path opacity="0.57" d="M107.721 208.157L107.914 208.085C108.009 208.206 108.118 208.276 108.242 208.296C108.402 208.323 108.63 208.282 108.927 208.171C109.116 208.1 109.71 207.857 110.709 207.44C111.311 207.187 111.688 207.032 111.839 206.976C112.295 206.806 112.711 206.739 113.088 206.777C113.467 206.813 113.818 206.956 114.139 207.205C114.46 207.454 114.76 207.851 115.038 208.394C115.233 208.775 115.6 209.637 116.14 210.98C115.731 211.518 115.428 211.964 115.232 212.318C114.268 212.4 113.453 212.565 112.786 212.814C112.333 212.983 111.933 213.195 111.587 213.449C111.24 213.701 110.895 214.027 110.55 214.428L110.372 214.316C110.826 213.815 111.209 213.333 111.521 212.869C111.832 212.406 112.011 212.029 112.056 211.74C112.103 211.448 112.058 211.116 111.919 210.745C111.869 210.611 111.792 210.413 111.688 210.152C111.614 209.97 111.54 209.78 111.466 209.582C111.336 209.234 111.259 208.97 111.236 208.791C111.216 208.611 111.23 208.39 111.28 208.128L111.172 208.168C110.909 208.485 110.751 208.744 110.698 208.945C110.647 209.143 110.667 209.363 110.758 209.608L111.337 211.057C111.482 211.447 111.496 211.84 111.379 212.237C111.26 212.632 110.866 213.286 110.197 214.198L110.018 214.082C110.348 213.603 110.548 213.236 110.615 212.982C110.683 212.728 110.676 212.492 110.594 212.272C110.524 212.083 110.403 211.945 110.233 211.858C110.062 211.769 109.904 211.751 109.759 211.806C109.685 211.833 109.624 211.879 109.576 211.944C109.528 212.009 109.475 212.126 109.416 212.295L109.235 212.212C109.24 211.941 109.299 211.722 109.412 211.555C109.527 211.387 109.693 211.262 109.91 211.181C109.973 211.158 110.044 211.139 110.124 211.125C110.206 211.11 110.296 211.1 110.394 211.095C110.329 210.938 110.274 210.8 110.23 210.682C110.069 210.251 110.025 209.869 110.098 209.535C110.172 209.198 110.401 208.79 110.785 208.312C110.35 208.528 109.968 208.697 109.638 208.82C109.29 208.95 108.972 209.013 108.685 209.007C108.47 209 108.287 208.929 108.137 208.794C107.986 208.657 107.847 208.445 107.721 208.157ZM111.481 208.052C111.438 208.297 111.424 208.501 111.438 208.664C111.459 208.888 111.502 209.088 111.567 209.263L112.206 210.873C112.284 211.081 112.311 211.314 112.288 211.569C112.269 211.761 112.193 212.015 112.061 212.33C112.437 212.114 112.731 211.969 112.943 211.892L113.179 211.809L111.741 207.955L111.481 208.052ZM112.541 209.458C112.752 209.513 112.928 209.54 113.068 209.538C113.211 209.535 113.355 209.506 113.5 209.452C113.646 209.397 113.773 209.325 113.883 209.233C113.992 209.14 114.11 209.003 114.237 208.825C113.954 208.226 113.639 207.869 113.292 207.751C112.944 207.631 112.497 207.673 111.951 207.877L112.541 209.458ZM113.048 210.816C113.195 210.64 113.327 210.508 113.444 210.42C113.561 210.33 113.697 210.255 113.853 210.197C114.004 210.14 114.152 210.107 114.295 210.098C114.437 210.085 114.618 210.096 114.837 210.13L114.35 209.04C114.215 209.213 114.09 209.344 113.976 209.433C113.865 209.519 113.733 209.59 113.582 209.646C113.437 209.7 113.284 209.731 113.124 209.737C112.964 209.744 112.797 209.726 112.625 209.684L113.048 210.816ZM113.394 211.743C113.739 211.645 114.024 211.578 114.248 211.541C114.473 211.501 114.833 211.46 115.328 211.419C115.179 211.003 115.101 210.788 115.096 210.774C115.084 210.741 115.032 210.61 114.941 210.382C114.72 210.327 114.533 210.301 114.382 210.305C114.232 210.307 114.08 210.338 113.923 210.396C113.764 210.455 113.624 210.534 113.505 210.632C113.388 210.729 113.265 210.87 113.137 211.055L113.394 211.743ZM119.134 206.062L119.304 206.065C119.242 206.351 119.213 206.563 119.218 206.702C119.225 206.837 119.267 207.009 119.345 207.217L120 208.971C120.109 209.262 120.199 209.436 120.27 209.494C120.344 209.548 120.412 209.563 120.475 209.54C120.508 209.527 120.539 209.506 120.569 209.476C120.586 209.455 120.632 209.381 120.707 209.256L120.848 209.358L120.213 210.458C119.94 210.373 119.744 210.279 119.624 210.176C119.504 210.071 119.396 209.903 119.301 209.673L118.418 211.129C117.805 210.92 117.429 210.629 117.29 210.255C117.196 210.005 117.16 209.752 117.179 209.494C117.206 209.156 117.312 208.733 117.498 208.226L116.611 207.357L116.625 207.22C116.736 207.191 116.818 207.166 116.87 207.147C117.194 207.026 117.431 206.791 117.582 206.44C117.826 206.483 118.08 206.497 118.343 206.48C118.608 206.462 118.804 206.43 118.93 206.382C118.988 206.361 119.028 206.335 119.051 206.304C119.073 206.271 119.101 206.191 119.134 206.062ZM118.391 207.236L116.821 207.33L117.72 208.204L118.784 208.29L118.391 207.236ZM118.847 208.459L117.677 208.366C117.648 208.758 117.681 209.08 117.776 209.333C117.942 209.777 118.28 210.068 118.791 210.206L119.225 209.472L118.847 208.459ZM120.472 205.877L121.09 204.028L121.21 203.983L121.593 205.135L122.42 204.826L122.594 205.291L121.766 205.6L122.801 208.371L123.39 208.54L123.576 208.236L123.725 208.321L123.09 209.384C122.662 209.184 122.231 209.101 121.796 209.135L121.766 209.053C121.848 208.938 121.892 208.834 121.898 208.741C121.907 208.622 121.875 208.466 121.803 208.274L120.922 205.915L120.54 206.058L120.472 205.877ZM125.078 203.641L126.745 204.562L125.383 206.544L125.663 207.293L126.759 207.315L127.241 206.633L127.378 206.723L126.391 208.151C126.065 208.107 125.803 208.087 125.604 208.089C125.404 208.091 125.13 208.119 124.78 208.171L124.742 208.068C124.815 207.978 124.851 207.888 124.852 207.797C124.854 207.703 124.805 207.521 124.705 207.252L123.825 204.897C124.048 204.707 124.231 204.542 124.372 204.402C124.474 204.298 124.709 204.045 125.078 203.641ZM124.629 204.348L124.582 204.399L125.278 206.264L126.078 205.102L124.629 204.348ZM129.672 206.926L128.813 206.534L129.203 205.671L130.068 206.065L129.672 206.926ZM128.502 203.793L127.643 203.401L128.033 202.538L128.898 202.932L128.502 203.793ZM132.696 200.768L133.929 198.845L136.359 199.297C136.429 199.453 136.484 199.584 136.524 199.691C136.693 200.141 136.713 200.571 136.584 200.982C136.456 201.392 136.053 202.001 135.376 202.807C135.071 203.172 134.864 203.451 134.755 203.644C134.648 203.835 134.567 204.049 134.512 204.289C134.792 204.015 135.044 203.804 135.27 203.654C135.497 203.5 135.731 203.378 135.973 203.288C136.179 203.211 136.394 203.148 136.619 203.098C136.848 203.047 137.024 203.016 137.147 203.004L137.862 202.972L137.44 204.026C136.956 204.037 136.631 204.057 136.463 204.086C136.196 204.126 135.953 204.187 135.734 204.269C135.317 204.424 134.898 204.689 134.477 205.062C134.388 205.142 134.335 205.185 134.319 205.191C134.303 205.197 134.288 205.196 134.276 205.188C134.26 205.179 134.247 205.16 134.236 205.133C134.187 205.001 134.172 204.824 134.192 204.6C134.217 204.297 134.296 203.978 134.431 203.644C134.525 203.402 134.699 203.065 134.954 202.632C135.208 202.199 135.376 201.88 135.459 201.674C135.573 201.384 135.638 201.102 135.654 200.827C135.673 200.551 135.633 200.28 135.533 200.014C135.385 199.616 135.114 199.343 134.721 199.196L133.502 201.143L132.696 200.768ZM138.815 197.02C139.518 197.001 140.13 197.164 140.653 197.506C141.174 197.847 141.553 198.335 141.791 198.972C142.024 199.598 142.075 200.228 141.943 200.862C141.812 201.492 141.538 202.089 141.12 202.652C140.692 202.705 140.27 202.662 139.852 202.524C139.438 202.385 139.074 202.155 138.76 201.835C138.449 201.513 138.216 201.145 138.061 200.73C137.84 200.138 137.796 199.497 137.93 198.809C138.064 198.121 138.359 197.525 138.815 197.02ZM138.381 198.045C138.164 198.617 138.168 199.207 138.394 199.813C138.554 200.241 138.797 200.611 139.122 200.921C139.448 201.231 139.827 201.446 140.259 201.566C140.694 201.685 141.1 201.703 141.476 201.622C141.573 201.277 141.618 200.971 141.612 200.704C141.608 200.433 141.552 200.154 141.444 199.866C141.297 199.471 141.075 199.125 140.78 198.829C140.487 198.528 140.133 198.315 139.72 198.188C139.306 198.058 138.86 198.01 138.381 198.045ZM149.395 192.455L149.59 192.537C149.38 193.056 149.264 193.486 149.241 193.826C149.219 194.162 149.272 194.501 149.399 194.841C149.463 195.011 149.581 195.312 149.755 195.745C149.847 195.973 149.939 196.211 150.031 196.458C150.315 197.218 150.432 197.822 150.383 198.268C150.318 198.856 150.071 199.442 149.642 200.027C149.289 200.513 148.934 200.822 148.577 200.955C148.478 200.992 148.387 201.015 148.303 201.025C148.222 201.036 148.087 201.041 147.896 201.041C147.634 201.035 147.432 201.059 147.289 201.112C147.168 201.157 147.079 201.22 147.022 201.301C146.983 201.356 146.962 201.45 146.958 201.583L146.768 201.575C146.737 201.276 146.756 201.041 146.823 200.869C146.934 200.596 147.143 200.402 147.45 200.288C147.579 200.239 147.733 200.212 147.912 200.204C148.167 200.193 148.35 200.167 148.46 200.126C148.674 200.047 148.822 199.915 148.903 199.731C148.986 199.544 148.986 199.339 148.903 199.116C148.79 198.812 148.572 198.552 148.251 198.337C147.806 198.041 147.369 197.972 146.941 198.132C146.861 198.162 146.768 198.213 146.66 198.284L146.514 198.17C146.715 197.92 146.929 197.752 147.157 197.667C147.28 197.621 147.4 197.595 147.517 197.589C147.632 197.58 147.783 197.593 147.967 197.627C147.846 197.394 147.727 197.227 147.612 197.127C147.459 196.993 147.288 196.908 147.099 196.872C146.912 196.833 146.748 196.84 146.605 196.893C146.476 196.941 146.358 197.041 146.253 197.193L146.089 197.095C146.196 196.905 146.305 196.759 146.414 196.659C146.524 196.559 146.658 196.479 146.817 196.419C147.029 196.34 147.289 196.326 147.599 196.376C147.493 196.059 147.441 195.796 147.444 195.585C147.446 195.372 147.506 195.13 147.624 194.861C147.741 194.589 147.964 194.234 148.291 193.796C147.945 194.066 147.64 194.25 147.376 194.348C147.105 194.45 146.781 194.504 146.405 194.51C146.027 194.513 145.75 194.548 145.571 194.614C145.338 194.701 145.175 194.826 145.083 194.989C144.989 195.149 144.964 195.287 145.007 195.402C145.02 195.438 145.041 195.463 145.068 195.478C145.098 195.492 145.128 195.493 145.158 195.481C145.186 195.471 145.222 195.444 145.268 195.398C145.317 195.352 145.363 195.321 145.407 195.304C145.5 195.27 145.592 195.274 145.684 195.318C145.774 195.359 145.838 195.429 145.875 195.528C145.916 195.638 145.913 195.744 145.867 195.846C145.823 195.946 145.745 196.018 145.632 196.06C145.487 196.114 145.335 196.1 145.176 196.019C145.019 195.934 144.902 195.788 144.826 195.582C144.714 195.283 144.749 194.957 144.93 194.605C145.111 194.253 145.401 194.003 145.799 193.854C146.048 193.761 146.496 193.67 147.142 193.582C147.66 193.514 148.056 193.429 148.327 193.327C148.582 193.232 148.788 193.119 148.942 192.99C149.1 192.859 149.251 192.681 149.395 192.455ZM149.023 193.255C148.704 193.59 148.485 193.88 148.367 194.124C148.212 194.454 148.131 194.8 148.126 195.162C148.119 195.521 148.217 195.972 148.42 196.515L149.126 198.33C149.293 198.777 149.367 199.147 149.347 199.439C149.335 199.649 149.238 199.906 149.054 200.21C149.311 199.97 149.488 199.772 149.583 199.618C149.716 199.403 149.792 199.16 149.813 198.889C149.833 198.616 149.776 198.301 149.643 197.944L148.916 196.086C148.707 195.526 148.618 194.997 148.647 194.498C148.665 194.153 148.791 193.739 149.023 193.255ZM154.016 192.835L154.98 193.17L154.761 193.599L155.568 195.76C155.661 196.01 155.762 196.175 155.871 196.257C155.942 196.315 156.004 196.334 156.056 196.314C156.095 196.3 156.152 196.227 156.228 196.095L156.384 196.187L155.766 197.182C155.489 197.111 155.294 197.027 155.18 196.932C155.068 196.833 154.96 196.652 154.855 196.388C154.532 196.821 154.222 197.315 153.926 197.87C153.582 197.76 153.339 197.643 153.198 197.517C153.057 197.389 152.938 197.196 152.841 196.938L152.082 194.904C152.029 194.761 151.983 194.672 151.944 194.636C151.877 194.574 151.811 194.555 151.745 194.579C151.695 194.598 151.637 194.668 151.57 194.79L151.416 194.716L152.032 193.576L153.004 193.907L152.804 194.301L153.621 196.487C153.681 196.649 153.746 196.761 153.816 196.822C153.885 196.881 154.02 196.938 154.223 196.994L154.769 196.157L153.929 193.909L153.523 193.714L154.016 192.835ZM158.486 191.166L159.397 191.544L159.652 191.008L159.808 191.076C159.682 191.323 159.615 191.5 159.608 191.606C159.598 191.747 159.632 191.923 159.711 192.135L160.442 194.09C160.509 194.271 160.588 194.395 160.679 194.461C160.736 194.506 160.786 194.52 160.83 194.503C160.869 194.489 160.939 194.402 161.042 194.241L161.189 194.332L160.574 195.387C160.282 195.299 160.078 195.202 159.963 195.095C159.849 194.984 159.737 194.78 159.627 194.484L158.78 192.215L158.186 191.996L157.718 192.776L158.593 195.118L159 195.304L158.491 196.165L157.538 195.85L157.749 195.434L156.963 193.33C156.851 193.031 156.746 192.84 156.647 192.758C156.579 192.703 156.519 192.684 156.467 192.704C156.412 192.724 156.345 192.798 156.267 192.924L156.125 192.845L156.741 191.818C157.046 191.898 157.247 191.976 157.344 192.052C157.442 192.128 157.523 192.254 157.589 192.43L157.641 192.57L158.486 191.166ZM162.558 189.646L164.224 190.567L162.863 192.548L163.142 193.297L164.239 193.32L164.721 192.638L164.858 192.727L163.871 194.156C163.545 194.112 163.282 194.091 163.083 194.094C162.884 194.096 162.61 194.123 162.26 194.176L162.222 194.073C162.295 193.983 162.331 193.893 162.332 193.802C162.334 193.707 162.285 193.526 162.184 193.257L161.305 190.902C161.528 190.712 161.71 190.547 161.852 190.407C161.954 190.303 162.189 190.049 162.558 189.646ZM162.109 190.353L162.062 190.403L162.758 192.268L163.558 191.106L162.109 190.353ZM167.298 187.848L168.531 185.924L170.961 186.376C171.032 186.532 171.087 186.663 171.127 186.77C171.295 187.22 171.315 187.65 171.187 188.061C171.059 188.471 170.656 189.08 169.978 189.887C169.673 190.251 169.466 190.53 169.357 190.723C169.25 190.914 169.169 191.128 169.115 191.368C169.394 191.094 169.647 190.883 169.872 190.733C170.099 190.579 170.334 190.457 170.575 190.367C170.781 190.29 170.997 190.227 171.222 190.177C171.45 190.127 171.626 190.095 171.75 190.083L172.465 190.051L172.042 191.105C171.559 191.116 171.233 191.136 171.065 191.165C170.799 191.205 170.556 191.266 170.336 191.348C169.919 191.504 169.5 191.768 169.08 192.141C168.991 192.221 168.938 192.264 168.922 192.27C168.905 192.276 168.891 192.275 168.878 192.267C168.862 192.258 168.849 192.239 168.839 192.212C168.79 192.08 168.775 191.903 168.795 191.679C168.819 191.376 168.899 191.057 169.033 190.723C169.128 190.481 169.302 190.144 169.556 189.711C169.811 189.278 169.979 188.959 170.062 188.753C170.175 188.463 170.24 188.181 170.257 187.906C170.276 187.63 170.235 187.359 170.136 187.093C169.987 186.695 169.717 186.422 169.324 186.275L168.104 188.222L167.298 187.848ZM173.417 184.099C174.12 184.08 174.733 184.243 175.255 184.586C175.776 184.926 176.156 185.414 176.393 186.051C176.627 186.677 176.678 187.307 176.545 187.941C176.415 188.571 176.141 189.168 175.722 189.731C175.295 189.784 174.872 189.741 174.455 189.603C174.04 189.464 173.676 189.234 173.362 188.914C173.051 188.592 172.819 188.224 172.664 187.809C172.443 187.217 172.399 186.576 172.533 185.888C172.667 185.2 172.962 184.604 173.417 184.099ZM172.984 185.124C172.766 185.696 172.77 186.286 172.997 186.892C173.157 187.32 173.399 187.69 173.725 188C174.05 188.31 174.429 188.525 174.862 188.645C175.297 188.764 175.703 188.782 176.079 188.701C176.175 188.356 176.22 188.05 176.214 187.783C176.21 187.512 176.155 187.233 176.047 186.945C175.899 186.55 175.678 186.204 175.383 185.908C175.089 185.607 174.736 185.394 174.323 185.267C173.908 185.137 173.462 185.089 172.984 185.124ZM176.906 184.26L178.139 182.336L180.569 182.789C180.64 182.944 180.695 183.075 180.735 183.182C180.903 183.632 180.923 184.062 180.795 184.473C180.667 184.884 180.264 185.492 179.586 186.299C179.281 186.663 179.074 186.942 178.965 187.136C178.858 187.326 178.777 187.541 178.722 187.78C179.002 187.507 179.254 187.295 179.48 187.145C179.707 186.992 179.941 186.87 180.183 186.78C180.389 186.703 180.604 186.639 180.83 186.59C181.058 186.539 181.234 186.508 181.358 186.496L182.073 186.463L181.65 187.517C181.166 187.529 180.841 187.549 180.673 187.577C180.407 187.617 180.164 187.678 179.944 187.76C179.527 187.916 179.108 188.18 178.687 188.553C178.598 188.633 178.546 188.676 178.529 188.682C178.513 188.689 178.498 188.688 178.486 188.68C178.47 188.67 178.457 188.652 178.447 188.624C178.397 188.492 178.383 188.315 178.403 188.092C178.427 187.789 178.506 187.47 178.641 187.135C178.735 186.893 178.91 186.556 179.164 186.123C179.418 185.691 179.587 185.371 179.669 185.165C179.783 184.876 179.848 184.593 179.864 184.318C179.883 184.042 179.843 183.771 179.744 183.505C179.595 183.107 179.324 182.835 178.932 182.687L177.712 184.634L176.906 184.26ZM182.721 180.625L184.971 180.746C185.025 180.842 185.067 180.929 185.097 181.009C185.221 181.341 185.228 181.67 185.118 181.996C185.007 182.318 184.813 182.624 184.536 182.912C185.033 182.845 185.445 182.897 185.772 183.069C186.102 183.24 186.322 183.474 186.433 183.77C186.551 184.086 186.528 184.418 186.364 184.767C186.155 185.22 185.65 185.739 184.848 186.323L182.721 185.663L183.094 184.853L185.457 185.579C185.56 185.385 185.617 185.195 185.629 185.009C185.642 184.819 185.606 184.608 185.519 184.374C185.351 183.927 185.09 183.62 184.733 183.453C184.379 183.282 183.986 183.277 183.555 183.438C183.418 183.489 183.274 183.557 183.124 183.641L183.012 183.34L183.094 183.309C183.572 183.131 183.894 182.864 184.061 182.507C184.229 182.151 184.228 181.748 184.06 181.298C183.992 181.116 183.916 181.001 183.832 180.951C183.75 180.898 183.671 180.885 183.597 180.912C183.52 180.941 183.443 181.018 183.365 181.144L183.317 181.218L182.493 182.441L181.742 182.088L182.721 180.625Z" fill="#D3CDBF"/>
<mask id="path-9-inside-1_145_2330" fill="white">
<path fill-rule="evenodd" clip-rule="evenodd" d="M112.609 98.9541L99.5324 63.5794L111.584 99.3164C111.969 100.457 110.38 101.18 109.773 100.14L90.7521 67.5736L108.826 100.675C109.403 101.732 107.964 102.719 107.186 101.801L82.7988 73.0319L106.346 102.492C107.098 103.432 105.852 104.655 104.926 103.885L75.9141 79.7883L104.219 104.712C105.123 105.507 104.109 106.928 103.063 106.331L70.3073 87.6375L102.511 107.267C103.539 107.894 102.786 109.469 101.653 109.062L66.1487 96.3411L101.271 110.08C102.393 110.519 101.925 112.201 100.738 111.997L63.5646 105.635L100.539 113.066C101.72 113.304 101.552 115.041 100.347 115.047L62.6336 115.236L100.337 116.134C101.541 116.163 101.677 117.902 100.492 118.117L63.3839 124.853L99.754 119.329L134.386 107.092L166.152 88.5387L133.05 106.613C131.993 107.19 131.006 105.751 131.925 104.972L160.694 80.5854L131.234 104.133C130.293 104.885 129.071 103.639 129.84 102.713L153.937 73.7008L129.014 102.006C128.218 102.91 126.798 101.895 127.395 100.85L146.088 68.0939L126.458 100.297C125.832 101.325 124.257 100.573 124.663 99.4393L137.384 63.9353L123.645 99.0579C123.206 100.179 121.525 99.7118 121.728 98.5249L128.091 61.3512L120.659 98.326C120.422 99.5066 118.685 99.3382 118.679 98.134L118.49 60.4202L117.592 98.1238C117.563 99.3276 115.823 99.4634 115.608 98.2785L108.873 61.1705L114.535 98.4573C114.716 99.6478 113.026 100.084 112.609 98.9541Z"/>
</mask>
<path fill-rule="evenodd" clip-rule="evenodd" d="M112.609 98.9541L99.5324 63.5794L111.584 99.3164C111.969 100.457 110.38 101.18 109.773 100.14L90.7521 67.5736L108.826 100.675C109.403 101.732 107.964 102.719 107.186 101.801L82.7988 73.0319L106.346 102.492C107.098 103.432 105.852 104.655 104.926 103.885L75.9141 79.7883L104.219 104.712C105.123 105.507 104.109 106.928 103.063 106.331L70.3073 87.6375L102.511 107.267C103.539 107.894 102.786 109.469 101.653 109.062L66.1487 96.3411L101.271 110.08C102.393 110.519 101.925 112.201 100.738 111.997L63.5646 105.635L100.539 113.066C101.72 113.304 101.552 115.041 100.347 115.047L62.6336 115.236L100.337 116.134C101.541 116.163 101.677 117.902 100.492 118.117L63.3839 124.853L99.754 119.329L134.386 107.092L166.152 88.5387L133.05 106.613C131.993 107.19 131.006 105.751 131.925 104.972L160.694 80.5854L131.234 104.133C130.293 104.885 129.071 103.639 129.84 102.713L153.937 73.7008L129.014 102.006C128.218 102.91 126.798 101.895 127.395 100.85L146.088 68.0939L126.458 100.297C125.832 101.325 124.257 100.573 124.663 99.4393L137.384 63.9353L123.645 99.0579C123.206 100.179 121.525 99.7118 121.728 98.5249L128.091 61.3512L120.659 98.326C120.422 99.5066 118.685 99.3382 118.679 98.134L118.49 60.4202L117.592 98.1238C117.563 99.3276 115.823 99.4634 115.608 98.2785L108.873 61.1705L114.535 98.4573C114.716 99.6478 113.026 100.084 112.609 98.9541Z" fill="#EB794A"/>
<path d="M99.5324 63.5794L100.47 63.2327L98.5848 63.8989L99.5324 63.5794ZM112.609 98.9541L113.547 98.6074L112.609 98.9541ZM111.584 99.3164L110.636 99.6359L111.584 99.3164ZM109.773 100.14L110.636 99.6359L110.636 99.6359L109.773 100.14ZM90.7521 67.5736L91.6156 67.0693L89.8744 68.0529L90.7521 67.5736ZM108.826 100.675L109.704 100.196L108.826 100.675ZM107.186 101.801L107.948 101.154L107.186 101.801ZM82.7988 73.0319L83.5616 72.3852L82.0177 73.6562L82.7988 73.0319ZM106.346 102.492L107.127 101.867L106.346 102.492ZM104.926 103.885L104.287 104.655L104.287 104.655L104.926 103.885ZM75.9141 79.7883L76.5531 79.019L75.2533 80.5388L75.9141 79.7883ZM104.219 104.712L104.88 103.961L104.219 104.712ZM103.063 106.331L102.567 107.199L103.063 106.331ZM70.3073 87.6375L70.803 86.769L69.7868 88.4914L70.3073 87.6375ZM102.511 107.267L101.99 108.121L102.511 107.267ZM101.653 109.062L101.99 108.121L101.653 109.062ZM66.1487 96.3411L66.486 95.3997L65.7844 97.2724L66.1487 96.3411ZM101.271 110.08L101.636 109.149L101.271 110.08ZM100.738 111.997L100.57 112.983L100.738 111.997ZM63.5646 105.635L63.7333 104.649L63.3676 106.615L63.5646 105.635ZM100.539 113.066L100.736 112.086L100.736 112.086L100.539 113.066ZM100.347 115.047L100.352 116.047L100.347 115.047ZM62.6336 115.236L62.6286 114.236L62.6098 116.235L62.6336 115.236ZM100.337 116.134L100.361 115.134L100.337 116.134ZM100.492 118.117L100.67 119.101L100.492 118.117ZM63.3839 124.853L63.2053 123.869L63.5341 125.841L63.3839 124.853ZM99.754 119.329L99.9041 120.318L99.9978 120.304L100.087 120.272L99.754 119.329ZM134.386 107.092L134.719 108.035L134.808 108.003L134.89 107.955L134.386 107.092ZM166.152 88.5387L166.656 89.4022L165.672 87.661L166.152 88.5387ZM133.05 106.613L133.53 107.49L133.53 107.49L133.05 106.613ZM131.925 104.972L132.571 105.735L131.925 104.972ZM160.694 80.5854L161.34 81.3482L160.069 79.8043L160.694 80.5854ZM131.234 104.133L131.858 104.914L131.234 104.133ZM129.84 102.713L130.609 103.352L129.84 102.713ZM153.937 73.7008L154.706 74.3397L153.187 73.0399L153.937 73.7008ZM129.014 102.006L128.263 101.345L129.014 102.006ZM127.395 100.85L126.526 100.354L127.395 100.85ZM146.088 68.0939L146.956 68.5896L145.234 67.5735L146.088 68.0939ZM126.458 100.297L125.604 99.7766L125.604 99.7766L126.458 100.297ZM124.663 99.4393L123.722 99.102L124.663 99.4393ZM137.384 63.9353L138.326 64.2726L136.453 63.571L137.384 63.9353ZM123.645 99.0579L122.714 98.6936L122.714 98.6936L123.645 99.0579ZM121.728 98.5249L120.742 98.3562L121.728 98.5249ZM128.091 61.3512L129.076 61.5199L127.11 61.1542L128.091 61.3512ZM120.659 98.326L121.639 98.5231L121.639 98.5231L120.659 98.326ZM118.679 98.134L117.679 98.139L118.679 98.134ZM118.49 60.4202L119.49 60.4152L117.49 60.3964L118.49 60.4202ZM117.592 98.1238L118.591 98.1476L117.592 98.1238ZM115.608 98.2785L114.624 98.4571L115.608 98.2785ZM108.873 61.1705L109.857 60.9919L107.884 61.3207L108.873 61.1705ZM114.535 98.4573L113.547 98.6074L113.547 98.6074L114.535 98.4573ZM98.5944 63.9261L111.671 99.3008L113.547 98.6074L100.47 63.2327L98.5944 63.9261ZM112.531 98.9968L100.48 63.2599L98.5848 63.8989L110.636 99.6359L112.531 98.9968ZM108.909 100.645C110.124 102.724 113.301 101.279 112.531 98.9968L110.636 99.6359C110.641 99.6501 110.642 99.6587 110.643 99.6619C110.643 99.6651 110.643 99.6645 110.643 99.6607C110.643 99.657 110.644 99.6519 110.646 99.6461C110.647 99.6404 110.649 99.6353 110.651 99.6312C110.655 99.6229 110.658 99.6211 110.655 99.6237C110.652 99.6265 110.646 99.6315 110.636 99.6359C110.627 99.6403 110.618 99.6419 110.614 99.6424C110.611 99.6427 110.614 99.6418 110.623 99.6442C110.627 99.6453 110.632 99.6472 110.638 99.6498C110.643 99.6524 110.647 99.6552 110.65 99.6575C110.653 99.6598 110.653 99.6605 110.651 99.658C110.649 99.6556 110.644 99.6488 110.636 99.6359L108.909 100.645ZM89.8886 68.078L108.909 100.645L110.636 99.6359L91.6156 67.0693L89.8886 68.078ZM109.704 100.196L91.6298 67.0944L89.8744 68.0529L107.948 101.154L109.704 100.196ZM106.423 102.447C107.98 104.285 110.858 102.31 109.704 100.196L107.948 101.154C107.956 101.167 107.958 101.176 107.959 101.179C107.96 101.182 107.96 101.181 107.96 101.177C107.959 101.174 107.959 101.169 107.96 101.163C107.96 101.157 107.961 101.151 107.962 101.147C107.965 101.138 107.967 101.136 107.965 101.139C107.963 101.142 107.957 101.148 107.948 101.154C107.94 101.16 107.932 101.163 107.928 101.164C107.924 101.165 107.927 101.164 107.937 101.165C107.941 101.165 107.947 101.166 107.952 101.168C107.958 101.169 107.963 101.171 107.966 101.173C107.969 101.175 107.97 101.175 107.967 101.173C107.965 101.171 107.958 101.166 107.948 101.154L106.423 102.447ZM82.036 73.6785L106.423 102.447L107.948 101.154L83.5616 72.3852L82.036 73.6785ZM107.127 101.867L83.5799 72.4075L82.0177 73.6562L105.565 103.116L107.127 101.867ZM104.287 104.655C106.14 106.193 108.631 103.749 107.127 101.867L105.565 103.116C105.574 103.128 105.579 103.135 105.58 103.138C105.582 103.141 105.581 103.141 105.58 103.137C105.579 103.133 105.578 103.128 105.577 103.123C105.577 103.117 105.577 103.111 105.578 103.107C105.579 103.097 105.581 103.095 105.579 103.098C105.577 103.102 105.573 103.109 105.565 103.116C105.557 103.124 105.55 103.128 105.547 103.13C105.543 103.131 105.546 103.129 105.555 103.129C105.56 103.128 105.565 103.128 105.571 103.129C105.577 103.129 105.582 103.13 105.586 103.132C105.589 103.133 105.59 103.133 105.587 103.132C105.584 103.13 105.577 103.126 105.565 103.116L104.287 104.655ZM75.2752 80.5575L104.287 104.655L105.565 103.116L76.5531 79.019L75.2752 80.5575ZM104.88 103.961L76.575 79.0377L75.2533 80.5388L103.559 105.462L104.88 103.961ZM102.567 107.199C104.659 108.393 106.688 105.553 104.88 103.961L103.559 105.462C103.57 105.472 103.575 105.479 103.577 105.481C103.579 105.484 103.579 105.484 103.577 105.48C103.575 105.477 103.573 105.472 103.572 105.466C103.57 105.461 103.57 105.455 103.569 105.451C103.569 105.441 103.57 105.438 103.569 105.442C103.568 105.446 103.565 105.454 103.559 105.462C103.552 105.471 103.546 105.476 103.543 105.479C103.54 105.481 103.542 105.478 103.551 105.476C103.556 105.475 103.561 105.474 103.567 105.473C103.573 105.473 103.578 105.473 103.582 105.474C103.585 105.474 103.586 105.475 103.583 105.474C103.58 105.473 103.572 105.47 103.559 105.462L102.567 107.199ZM69.8117 88.506L102.567 107.199L103.559 105.462L70.803 86.769L69.8117 88.506ZM103.031 106.413L70.8278 86.7836L69.7868 88.4914L101.99 108.121L103.031 106.413ZM101.315 110.004C103.583 110.816 105.088 107.667 103.031 106.413L101.99 108.121C102.003 108.129 102.009 108.134 102.012 108.137C102.014 108.139 102.014 108.138 102.011 108.135C102.009 108.132 102.006 108.128 102.004 108.123C102.001 108.117 102 108.112 101.999 108.108C101.996 108.099 101.997 108.095 101.997 108.099C101.996 108.103 101.995 108.111 101.99 108.121C101.985 108.131 101.98 108.137 101.977 108.14C101.975 108.143 101.977 108.14 101.985 108.136C101.989 108.134 101.994 108.132 102 108.131C102.006 108.129 102.011 108.129 102.015 108.128C102.018 108.128 102.019 108.129 102.016 108.128C102.013 108.128 102.004 108.126 101.99 108.121L101.315 110.004ZM65.8114 97.2825L101.315 110.004L101.99 108.121L66.486 95.3997L65.8114 97.2825ZM101.636 109.149L66.513 95.4098L65.7844 97.2724L100.907 111.012L101.636 109.149ZM100.57 112.983C102.943 113.389 103.879 110.027 101.636 109.149L100.907 111.012C100.921 111.017 100.928 111.022 100.931 111.023C100.934 111.025 100.933 111.025 100.93 111.022C100.928 111.02 100.924 111.016 100.921 111.011C100.918 111.006 100.915 111.001 100.913 110.997C100.909 110.989 100.91 110.985 100.91 110.989C100.91 110.993 100.91 111.001 100.907 111.012C100.904 111.022 100.9 111.029 100.898 111.033C100.896 111.036 100.897 111.033 100.905 111.027C100.908 111.025 100.913 111.022 100.919 111.02C100.924 111.017 100.929 111.016 100.933 111.015C100.936 111.014 100.937 111.014 100.934 111.014C100.93 111.014 100.922 111.014 100.907 111.012L100.57 112.983ZM63.3959 106.62L100.57 112.983L100.907 111.012L63.7333 104.649L63.3959 106.62ZM100.736 112.086L63.7617 104.654L63.3676 106.615L100.342 114.047L100.736 112.086ZM100.352 116.047C102.761 116.035 103.098 112.56 100.736 112.086L100.342 114.047C100.357 114.05 100.365 114.053 100.368 114.054C100.371 114.055 100.37 114.055 100.367 114.053C100.364 114.051 100.36 114.048 100.356 114.044C100.352 114.039 100.348 114.035 100.346 114.031C100.341 114.024 100.341 114.02 100.341 114.024C100.342 114.028 100.343 114.036 100.342 114.047C100.341 114.057 100.339 114.065 100.337 114.069C100.335 114.072 100.336 114.069 100.343 114.062C100.346 114.059 100.35 114.056 100.355 114.052C100.36 114.049 100.365 114.047 100.368 114.045C100.372 114.044 100.372 114.044 100.369 114.045C100.366 114.045 100.357 114.047 100.342 114.047L100.352 116.047ZM62.6386 116.236L100.352 116.047L100.342 114.047L62.6286 114.236L62.6386 116.236ZM100.361 115.134L62.6574 114.236L62.6098 116.235L100.313 117.134L100.361 115.134ZM100.67 119.101C103.04 118.671 102.769 115.191 100.361 115.134L100.313 117.134C100.328 117.134 100.337 117.135 100.34 117.136C100.343 117.137 100.342 117.137 100.339 117.135C100.336 117.134 100.331 117.132 100.326 117.128C100.321 117.125 100.317 117.121 100.314 117.118C100.308 117.111 100.307 117.108 100.308 117.111C100.31 117.115 100.313 117.123 100.313 117.134C100.314 117.144 100.313 117.152 100.312 117.156C100.311 117.16 100.311 117.157 100.316 117.149C100.319 117.145 100.323 117.141 100.327 117.137C100.331 117.133 100.335 117.13 100.338 117.128C100.342 117.126 100.342 117.126 100.339 117.127C100.336 117.128 100.328 117.131 100.313 117.134L100.67 119.101ZM63.5625 125.836L100.67 119.101L100.313 117.134L63.2053 123.869L63.5625 125.836ZM99.6038 118.34L63.2338 123.864L63.5341 125.841L99.9041 120.318L99.6038 118.34ZM100.087 120.272L134.719 108.035L134.053 106.149L99.4208 118.386L100.087 120.272ZM165.647 87.6752L133.881 106.228L134.89 107.955L166.656 89.4022L165.647 87.6752ZM133.53 107.49L166.631 89.4164L165.672 87.661L132.571 105.735L133.53 107.49ZM131.278 104.209C129.441 105.767 131.416 108.645 133.53 107.49L132.571 105.735C132.558 105.742 132.55 105.745 132.547 105.746C132.544 105.747 132.544 105.747 132.548 105.746C132.552 105.746 132.557 105.746 132.563 105.746C132.569 105.747 132.574 105.748 132.578 105.749C132.587 105.752 132.59 105.754 132.587 105.752C132.583 105.749 132.577 105.744 132.571 105.735C132.565 105.726 132.562 105.719 132.561 105.715C132.56 105.711 132.561 105.714 132.561 105.723C132.56 105.728 132.559 105.733 132.558 105.739C132.556 105.745 132.554 105.749 132.552 105.753C132.551 105.756 132.55 105.756 132.552 105.754C132.554 105.751 132.56 105.745 132.571 105.735L131.278 104.209ZM160.047 79.8226L131.278 104.209L132.571 105.735L161.34 81.3482L160.047 79.8226ZM131.858 104.914L161.318 81.3665L160.069 79.8043L130.609 103.352L131.858 104.914ZM129.071 102.074C127.532 103.926 129.977 106.418 131.858 104.914L130.609 103.352C130.597 103.361 130.59 103.365 130.587 103.367C130.584 103.368 130.585 103.368 130.588 103.367C130.592 103.366 130.597 103.365 130.603 103.364C130.609 103.364 130.614 103.364 130.619 103.364C130.628 103.365 130.631 103.367 130.627 103.366C130.624 103.364 130.617 103.359 130.609 103.352C130.602 103.344 130.597 103.337 130.596 103.333C130.594 103.33 130.596 103.333 130.597 103.342C130.597 103.346 130.597 103.352 130.597 103.358C130.596 103.364 130.595 103.369 130.594 103.372C130.593 103.376 130.592 103.376 130.594 103.373C130.595 103.371 130.6 103.363 130.609 103.352L129.071 102.074ZM153.168 73.0618L129.071 102.074L130.609 103.352L154.706 74.3397L153.168 73.0618ZM129.764 102.667L154.688 74.3616L153.187 73.0399L128.263 101.345L129.764 102.667ZM126.526 100.354C125.332 102.446 128.173 104.475 129.764 102.667L128.263 101.345C128.253 101.356 128.247 101.362 128.244 101.364C128.241 101.366 128.242 101.365 128.245 101.364C128.249 101.362 128.253 101.36 128.259 101.359C128.265 101.357 128.27 101.356 128.275 101.356C128.284 101.355 128.287 101.357 128.283 101.356C128.279 101.355 128.272 101.351 128.263 101.345C128.255 101.339 128.249 101.333 128.247 101.329C128.244 101.326 128.247 101.329 128.249 101.338C128.251 101.342 128.251 101.348 128.252 101.353C128.252 101.359 128.252 101.364 128.252 101.368C128.251 101.372 128.251 101.372 128.252 101.369C128.253 101.366 128.256 101.358 128.263 101.345L126.526 100.354ZM145.219 67.5983L126.526 100.354L128.263 101.345L146.956 68.5896L145.219 67.5983ZM127.312 100.818L146.942 68.6144L145.234 67.5735L125.604 99.7766L127.312 100.818ZM123.722 99.102C122.909 101.369 126.059 102.874 127.312 100.818L125.604 99.7766C125.597 99.7894 125.591 99.7961 125.589 99.7985C125.587 99.8009 125.587 99.8002 125.59 99.798C125.593 99.7957 125.597 99.793 125.603 99.7905C125.608 99.788 125.613 99.7863 125.618 99.7852C125.627 99.783 125.63 99.784 125.626 99.7835C125.622 99.783 125.614 99.7812 125.604 99.7766C125.595 99.772 125.588 99.767 125.585 99.764C125.583 99.7614 125.585 99.7633 125.589 99.7716C125.591 99.7758 125.593 99.7809 125.595 99.7867C125.596 99.7925 125.597 99.7976 125.597 99.8013C125.597 99.8051 125.597 99.8057 125.597 99.8025C125.598 99.7993 125.599 99.7908 125.604 99.7766L123.722 99.102ZM136.443 63.598L123.722 99.102L125.604 99.7766L138.326 64.2726L136.443 63.598ZM124.576 99.4222L138.316 64.2996L136.453 63.571L122.714 98.6936L124.576 99.4222ZM120.742 98.3562C120.336 100.73 123.699 101.665 124.576 99.4222L122.714 98.6936C122.708 98.7076 122.704 98.7151 122.702 98.7178C122.7 98.7205 122.7 98.7198 122.703 98.7171C122.706 98.7144 122.709 98.711 122.714 98.7075C122.719 98.7041 122.724 98.7015 122.728 98.6997C122.737 98.6959 122.74 98.6964 122.736 98.6966C122.732 98.6968 122.724 98.6964 122.714 98.6936C122.703 98.6907 122.696 98.6868 122.693 98.6845C122.69 98.6824 122.693 98.6837 122.698 98.6913C122.701 98.695 122.703 98.6998 122.706 98.7052C122.708 98.7106 122.71 98.7155 122.711 98.7192C122.711 98.7228 122.711 98.7235 122.711 98.7203C122.711 98.7171 122.711 98.7084 122.714 98.6936L120.742 98.3562ZM127.105 61.1825L120.742 98.3562L122.714 98.6936L129.076 61.5199L127.105 61.1825ZM121.639 98.5231L129.071 61.5483L127.11 61.1542L119.679 98.129L121.639 98.5231ZM117.679 98.139C117.691 100.547 121.165 100.884 121.639 98.5231L119.679 98.129C119.676 98.1437 119.673 98.1518 119.672 98.1549C119.67 98.1578 119.67 98.1571 119.672 98.154C119.674 98.1509 119.678 98.1468 119.682 98.1426C119.686 98.1384 119.69 98.135 119.694 98.1324C119.702 98.1273 119.705 98.1271 119.701 98.128C119.697 98.129 119.689 98.13 119.679 98.129C119.668 98.1279 119.66 98.1254 119.657 98.1236C119.653 98.1221 119.656 98.1229 119.663 98.1294C119.666 98.1327 119.67 98.1368 119.673 98.1417C119.676 98.1467 119.679 98.1513 119.68 98.1547C119.682 98.1582 119.681 98.1589 119.681 98.1558C119.68 98.1526 119.679 98.144 119.679 98.129L117.679 98.139ZM117.49 60.4252L117.679 98.139L119.679 98.129L119.49 60.4152L117.49 60.4252ZM118.591 98.1476L119.489 60.444L117.49 60.3964L116.592 98.0999L118.591 98.1476ZM114.624 98.4571C115.054 100.827 118.534 100.555 118.591 98.1476L116.592 98.0999C116.591 98.1149 116.59 98.1235 116.589 98.1267C116.589 98.1298 116.588 98.1291 116.59 98.1257C116.591 98.1222 116.594 98.1177 116.597 98.1128C116.601 98.108 116.604 98.1039 116.608 98.1007C116.614 98.0943 116.618 98.0935 116.614 98.095C116.61 98.0967 116.602 98.0991 116.592 98.0999C116.581 98.1008 116.573 98.0996 116.569 98.0985C116.565 98.0976 116.569 98.0978 116.576 98.1031C116.58 98.1058 116.584 98.1092 116.588 98.1135C116.593 98.1178 116.596 98.1219 116.598 98.1251C116.6 98.1282 116.6 98.1289 116.599 98.126C116.597 98.1229 116.595 98.1147 116.592 98.0999L114.624 98.4571ZM107.889 61.3491L114.624 98.4571L116.592 98.0999L109.857 60.9919L107.889 61.3491ZM115.524 98.3071L109.861 61.0204L107.884 61.3207L113.547 98.6074L115.524 98.3071ZM111.671 99.3008C112.506 101.56 115.886 100.688 115.524 98.3071L113.547 98.6074C113.549 98.6222 113.549 98.6309 113.549 98.6342C113.549 98.6374 113.549 98.6367 113.549 98.6331C113.55 98.6294 113.552 98.6245 113.554 98.6191C113.557 98.6138 113.56 98.6091 113.562 98.6054C113.568 98.5979 113.571 98.5966 113.568 98.5987C113.564 98.601 113.557 98.6047 113.547 98.6074C113.537 98.61 113.528 98.6103 113.524 98.61C113.52 98.6097 113.524 98.6093 113.532 98.6132C113.536 98.6151 113.541 98.6178 113.546 98.6213C113.551 98.6248 113.554 98.6283 113.557 98.6311C113.559 98.6339 113.56 98.6346 113.558 98.6319C113.556 98.6291 113.552 98.6215 113.547 98.6074L111.671 99.3008Z" fill="#EB794A" mask="url(#path-9-inside-1_145_2330)"/>
<path d="M97.6597 142.019C97.7401 134.605 97.8171 127.126 96.9404 119.747C96.64 117.218 96.3999 114.765 94.3963 113.084C92.7317 111.687 92.4679 119.269 92.4874 119.672C92.7151 124.385 95.001 127.237 98.3331 130.402C100.795 132.741 104.083 134.963 105.47 138.184C106.731 141.114 107.714 145.715 106.738 148.848C106.688 149.01 106.041 150.351 105.627 150.366C104.104 150.422 103.705 144.128 103.697 144.071C103.585 143.227 101.274 132.858 104.973 134.755C105.509 135.029 107.236 136.658 107.792 136.363C109.379 135.521 111.455 135.719 113.182 134.988C114.628 134.376 115.68 133.417 116.793 132.357C117.994 131.215 119.535 130.777 120.987 130.035C123.858 128.566 126.601 126.891 128.626 124.387C128.994 123.932 129.415 124.041 128.552 123.626C126.97 122.866 125.243 122.428 123.492 122.34C123.252 122.328 121.117 122.385 121.017 121.957C121 121.881 121.18 121.91 121.253 121.939C122.307 122.349 123.474 122.827 124.646 122.668C131.794 121.697 126.279 111.444 123.536 108.772C122.34 107.607 120.367 106.057 119.295 108.565C118.109 111.338 119.111 115.851 119.753 118.354C120.877 122.735 123.366 130.32 129.253 129.895C130.952 129.773 132.999 128.713 133.994 127.316C134.373 126.784 134.445 126.098 134.824 125.578C135.76 124.294 137.712 124.036 139.084 123.538C144.075 121.723 148.497 117.895 152.666 114.707" stroke="#D4CFC0" stroke-linecap="round"/>
<defs>
<filter id="filter0_b_145_2330" x="27.9141" y="21.416" width="185.215" height="214.136" filterUnits="userSpaceOnUse" color-interpolation-filters="sRGB">
<feFlood flood-opacity="0" result="BackgroundImageFix"/>
<feGaussianBlur in="BackgroundImageFix" stdDeviation="6"/>
<feComposite in2="SourceAlpha" operator="in" result="effect1_backgroundBlur_145_2330"/>
<feBlend mode="normal" in="SourceGraphic" in2="effect1_backgroundBlur_145_2330" result="shape"/>
</filter>
<filter id="filter1_b_145_2330" x="16.4473" y="9.8877" width="208.084" height="237.184" filterUnits="userSpaceOnUse" color-interpolation-filters="sRGB">
<feFlood flood-opacity="0" result="BackgroundImageFix"/>
<feGaussianBlur in="BackgroundImageFix" stdDeviation="4.5"/>
<feComposite in2="SourceAlpha" operator="in" result="effect1_backgroundBlur_145_2330"/>
<feBlend mode="normal" in="SourceGraphic" in2="effect1_backgroundBlur_145_2330" result="shape"/>
</filter>
</defs>
</svg>
