<svg width="59" height="32" viewBox="0 0 59 32" fill="none" xmlns="http://www.w3.org/2000/svg">
<path fill-rule="evenodd" clip-rule="evenodd" d="M55.6813 15.1081C52.1211 13.1593 45.4033 4.61792 42.0842 0C41.2468 5.44293 42.513 12.9894 51.1673 15.0064C41.0142 15.0346 13.6317 15.186 0.0839844 16H56.0461C43.1863 16.0041 41.3394 25.4703 42.2998 32C45.9708 26.6573 53.8602 16.2207 56.8362 16.0114C56.9184 16.0137 57.001 16.0164 57.084 16.0195C57.0057 16.0079 56.9231 16.0052 56.8362 16.0114C56.5741 16.0038 56.3164 16.0001 56.0629 16H56.0666H58.084C58.0313 16 57.7937 15.9018 57.4674 15.7669C57.2786 15.6889 57.0602 15.5986 56.8308 15.508C56.8314 15.508 56.8321 15.508 56.8328 15.5079C56.9209 15.5139 57.0048 15.5113 57.0842 15.5C57 15.503 56.9162 15.5057 56.8328 15.5079C56.8319 15.5079 56.8311 15.5078 56.8302 15.5078C56.4492 15.3573 56.0378 15.2059 55.6813 15.1081Z" fill="#EB794A"/>
</svg>
